<svg version="1.1" id="Layer_1" xmlns="http://www.w3.org/2000/svg" xmlns:xlink="http://www.w3.org/1999/xlink" x="0px" y="0px"
	 width="100%" viewBox="0 0 820 831" enable-background="new 0 0 820 831" xml:space="preserve">
<path fill="#F5F5F6" opacity="1.000000" stroke="none" 
	d="
M1.000000,220.000000 
	C1.000000,146.677673 1.000000,73.855354 1.000000,1.016514 
	C274.281006,1.016514 547.562012,1.016514 820.921509,1.016514 
	C820.921509,277.905792 820.921509,554.811584 820.921509,831.858704 
	C547.666687,831.858704 274.333374,831.858704 1.000000,831.858704 
	C1.000000,628.104431 1.000000,424.302216 1.000000,220.000000 
M12.768528,251.871399 
	C14.214799,307.833496 21.262455,363.092346 34.117455,417.565979 
	C52.786434,496.676544 82.378319,571.233032 127.924843,638.948364 
	C161.754684,689.244202 202.520020,732.747192 254.082260,765.364441 
	C301.439392,795.321655 352.896973,812.244202 409.218964,812.694092 
	C466.278687,813.149902 518.552368,796.649231 566.729736,766.637695 
	C619.413696,733.818665 661.068115,689.755127 695.224426,638.428467 
	C758.685913,543.065002 791.731140,436.905579 804.787781,324.000702 
	C807.978210,296.412384 808.797668,268.541809 810.411743,240.783813 
	C810.928223,231.902359 810.492554,222.965561 810.492554,214.143555 
	C544.027588,214.143555 278.346741,214.143555 12.718703,214.143555 
	C12.718703,226.676636 12.718703,238.805939 12.768528,251.871399 
M723.500000,41.886818 
	C486.948120,41.886818 250.396255,41.886818 13.743731,41.886818 
	C13.743731,93.873344 13.743731,145.238022 13.743731,196.671127 
	C279.392151,196.671127 544.627869,196.671127 810.192261,196.671127 
	C810.192261,145.081207 810.192261,93.685356 810.192261,41.886780 
	C781.443481,41.886780 752.971741,41.886780 723.500000,41.886818 
z"/>
<path fill="#363778" opacity="1.000000" stroke="none" 
	d="
M12.743616,251.403320 
	C12.718703,238.805939 12.718703,226.676636 12.718703,214.143555 
	C278.346741,214.143555 544.027588,214.143555 810.492554,214.143555 
	C810.492554,222.965561 810.928223,231.902359 810.411743,240.783813 
	C808.797668,268.541809 807.978210,296.412384 804.787781,324.000702 
	C791.731140,436.905579 758.685913,543.065002 695.224426,638.428467 
	C661.068115,689.755127 619.413696,733.818665 566.729736,766.637695 
	C518.552368,796.649231 466.278687,813.149902 409.218964,812.694092 
	C352.896973,812.244202 301.439392,795.321655 254.082260,765.364441 
	C202.520020,732.747192 161.754684,689.244202 127.924843,638.948364 
	C82.378319,571.233032 52.786434,496.676544 34.117455,417.565979 
	C21.262455,363.092346 14.214799,307.833496 12.743616,251.403320 
M619.500000,224.205383 
	C423.866577,224.205353 228.233139,224.193176 32.599709,224.237228 
	C21.542589,224.239716 22.781771,222.252243 22.900866,233.997864 
	C23.464874,289.622620 29.230495,344.688354 40.864792,399.116394 
	C56.825771,473.785645 82.600845,544.700806 122.188019,610.231140 
	C154.924622,664.421509 195.171860,711.947266 247.550781,748.318481 
	C292.699951,779.669434 342.338104,798.846741 397.592377,801.764771 
	C446.438599,804.344360 492.561676,793.706970 536.106018,771.665771 
	C589.835083,744.469238 632.742004,704.620300 668.884094,657.088806 
	C714.309692,597.348389 745.328003,530.378784 766.793152,458.809906 
	C788.952148,384.928101 799.256714,309.242798 800.023376,232.194931 
	C800.112976,223.189682 800.826416,224.219162 791.970886,224.215668 
	C734.813904,224.193115 677.656982,224.205017 619.500000,224.205383 
z"/>
<path fill="#373779" opacity="1.000000" stroke="none" 
	d="
M724.000000,41.886799 
	C752.971741,41.886780 781.443481,41.886780 810.192261,41.886780 
	C810.192261,93.685356 810.192261,145.081207 810.192261,196.671127 
	C544.627869,196.671127 279.392151,196.671127 13.743731,196.671127 
	C13.743731,145.238022 13.743731,93.873344 13.743731,41.886818 
	C250.396255,41.886818 486.948120,41.886818 724.000000,41.886799 
M24.292238,140.499969 
	C24.292391,153.665344 24.478939,166.834808 24.191248,179.993896 
	C24.091019,184.578278 25.408880,185.889191 30.050314,185.887207 
	C284.692627,185.778183 539.334961,185.778748 793.977234,185.882416 
	C798.557007,185.884277 799.890442,184.657242 799.870605,180.023270 
	C799.696106,139.361237 799.772583,98.698135 799.759277,58.035362 
	C799.758728,56.437263 799.603699,54.839214 799.500000,52.844257 
	C797.469788,52.844257 795.990234,52.844254 794.510681,52.844257 
	C539.535034,52.844700 284.559418,52.853901 29.583824,52.766987 
	C25.526192,52.765606 24.168083,53.740433 24.197750,58.008415 
	C24.386570,85.171165 24.293049,112.335884 24.292238,140.499969 
z"/>
<path fill="#ECDF11" opacity="1.000000" stroke="none" 
	d="
M620.000000,224.205505 
	C677.656982,224.205017 734.813904,224.193115 791.970886,224.215668 
	C800.826416,224.219162 800.112976,223.189682 800.023376,232.194931 
	C799.256714,309.242798 788.952148,384.928101 766.793152,458.809906 
	C745.328003,530.378784 714.309692,597.348389 668.884094,657.088806 
	C632.742004,704.620300 589.835083,744.469238 536.106018,771.665771 
	C492.561676,793.706970 446.438599,804.344360 397.592377,801.764771 
	C342.338104,798.846741 292.699951,779.669434 247.550781,748.318481 
	C195.171860,711.947266 154.924622,664.421509 122.188019,610.231140 
	C82.600845,544.700806 56.825771,473.785645 40.864792,399.116394 
	C29.230495,344.688354 23.464874,289.622620 22.900866,233.997864 
	C22.781771,222.252243 21.542589,224.239716 32.599709,224.237228 
	C228.233139,224.193176 423.866577,224.205353 620.000000,224.205505 
M375.764740,325.749908 
	C367.162109,304.660980 358.559479,283.572021 349.654114,261.740845 
	C344.462280,267.682129 339.809448,273.060486 335.098541,278.387482 
	C321.415131,293.860352 307.737671,309.338684 293.982910,324.747986 
	C291.624939,327.389587 291.126190,329.829193 292.447632,333.279297 
	C296.973297,345.095245 300.946442,357.123993 305.535797,368.913727 
	C307.432861,373.787170 307.245392,378.155182 305.460327,382.918427 
	C296.986847,405.528992 288.236267,428.052246 280.533447,450.926147 
	C277.811646,459.008575 273.949005,462.744751 265.520874,462.088104 
	C263.880096,461.960236 261.102478,462.990906 260.572693,464.226318 
	C257.253143,471.966919 254.422028,479.916992 251.154160,488.522186 
	C256.432617,488.248688 260.777069,488.023560 266.564758,487.723694 
	C260.549591,500.058594 255.229584,511.288971 249.593567,522.358459 
	C247.504776,526.460999 245.426056,531.084778 242.041779,533.915466 
	C231.558853,542.683655 219.100128,545.102112 205.895981,541.911987 
	C197.194611,539.809875 194.517731,533.971741 197.721542,525.495483 
	C199.603561,520.516174 201.771301,515.630371 204.066956,510.824982 
	C209.139023,500.207916 214.373215,489.668274 219.577377,479.023163 
	C210.417953,477.416962 208.607315,478.325043 204.683426,485.541138 
	C192.826797,507.345642 181.217453,529.295654 168.800949,550.778198 
	C164.825241,557.656738 166.300522,562.538696 170.528610,567.890564 
	C176.963425,576.035828 185.600098,580.879761 195.161713,584.275024 
	C209.197754,589.259155 223.203934,591.466248 237.265381,584.089172 
	C251.777786,576.475464 261.836121,564.431396 268.696167,550.183472 
	C277.273132,532.369629 284.463898,513.877808 291.916565,495.541901 
	C293.414856,491.855652 295.321350,490.444916 299.122528,490.289307 
	C315.765106,489.608063 332.404999,488.820709 349.032440,487.843536 
	C352.476074,487.641174 354.116119,488.829437 355.369751,491.910828 
	C361.142212,506.098846 367.049255,520.233032 373.018829,534.339600 
	C379.180817,548.900696 384.788818,563.786316 394.739319,576.363708 
	C404.970886,589.296387 424.453796,593.704529 438.514191,585.215820 
	C446.064301,580.657593 452.491364,574.079224 458.945099,567.910095 
	C465.386810,561.752563 471.229126,554.967957 477.522400,548.257568 
	C478.680206,549.586487 479.472260,550.412903 480.172211,551.310974 
	C502.633331,580.131165 532.481079,591.196045 568.259827,587.860413 
	C570.864319,587.617554 573.714783,587.132080 575.907959,585.838745 
	C587.789673,578.832092 599.535706,571.591980 611.243164,564.295593 
	C613.871155,562.657715 616.158691,560.473572 619.097107,558.150208 
	C619.313660,560.021484 619.594482,561.287720 619.586853,562.552307 
	C619.419678,590.210022 619.278748,617.868347 618.907471,645.523499 
	C618.880249,647.553162 617.562500,649.941528 616.130066,651.510498 
	C610.291443,657.905640 604.052307,663.935181 598.217896,670.333923 
	C595.730103,673.062317 593.058655,673.912964 589.458313,673.883301 
	C552.804382,673.580872 516.149414,673.342224 479.494385,673.260010 
	C417.335358,673.120728 355.175659,673.187439 293.017487,672.902771 
	C287.505219,672.877502 281.645264,671.778870 276.554108,669.695007 
	C249.638077,658.678284 227.071213,641.116638 205.979019,621.489929 
	C199.551453,615.509033 199.615341,615.434448 192.322083,620.403015 
	C192.115952,620.543396 192.089661,620.947815 191.979507,621.229126 
	C191.616638,621.538269 191.253784,621.847412 190.890915,622.156555 
	C203.945862,637.467896 216.491302,653.252502 230.172852,667.981812 
	C251.756241,691.218140 275.074341,712.602234 301.990967,729.730164 
	C313.361542,736.965637 325.335541,740.614014 339.176849,740.504944 
	C400.333252,740.022766 461.496613,740.471191 522.655029,740.136230 
	C533.733765,740.075562 544.989929,738.791443 555.806152,736.431091 
	C562.854736,734.892944 570.501404,731.740051 575.703552,726.947754 
	C589.033386,714.668213 601.276611,701.190369 613.719727,687.970886 
	C636.143738,664.147766 657.342285,639.326965 673.418396,610.618408 
	C683.099243,593.330505 690.703674,575.268066 691.103699,555.005188 
	C691.412720,539.348816 692.137695,523.666870 691.567261,508.036774 
	C691.044067,493.702087 694.128540,480.710510 701.601013,468.598572 
	C702.666443,466.871643 703.289551,464.871796 704.454712,462.234894 
	C701.510071,462.234894 699.545776,462.234924 697.581543,462.234924 
	C647.253479,462.234863 596.925232,462.163513 546.597839,462.346558 
	C541.645325,462.364563 540.250061,460.855194 540.601074,456.126587 
	C541.562134,443.178040 541.923767,430.181915 543.028137,417.247772 
	C545.390869,389.575989 553.076477,363.269836 564.868164,338.222351 
	C569.377441,328.643951 574.262756,319.077942 583.649902,312.877930 
	C587.012634,310.656921 588.751160,309.920135 591.221863,314.318665 
	C598.254272,326.838074 608.486694,334.222229 623.783875,332.949432 
	C632.885864,332.192108 640.793457,328.887573 648.416870,324.147095 
	C664.918945,313.885559 677.011108,298.764099 691.048889,285.797668 
	C695.545837,281.643921 699.369812,276.733948 703.276184,271.984467 
	C704.526978,270.463684 705.052246,268.346161 705.909485,266.501678 
	C705.503662,266.072327 705.097839,265.643005 704.692017,265.213684 
	C700.950806,267.440765 697.155396,269.582214 693.478088,271.910248 
	C680.103455,280.377502 666.848694,289.082916 651.613220,293.988068 
	C644.569031,296.256042 637.392517,297.718994 630.071228,295.119751 
	C625.932495,293.650421 622.851196,291.437714 622.446594,286.385101 
	C622.130554,282.438202 620.890808,278.565125 620.059448,274.659698 
	C619.317017,271.172150 617.125488,269.401367 613.680908,268.502655 
	C604.962463,266.227875 596.223694,266.753204 588.126465,269.980377 
	C571.301636,276.685913 554.254944,283.179657 538.306580,291.655487 
	C516.534546,303.226288 498.293457,319.352112 486.231934,341.369629 
	C470.520935,370.049103 463.221863,401.224548 460.048859,433.488403 
	C459.108612,443.049042 458.893005,452.680939 458.308685,462.922455 
	C451.098083,462.922455 443.976196,462.747925 436.869873,463.004272 
	C433.827240,463.114075 432.370209,461.986725 431.266724,459.325745 
	C412.895142,415.023163 394.461517,370.746338 375.764740,325.749908 
M262.079895,410.584106 
	C262.955353,410.102478 263.779144,409.449707 264.714722,409.167114 
	C270.620789,407.382996 272.026367,403.485992 271.913788,397.469788 
	C271.408966,370.490417 271.429108,343.501068 271.284485,316.515167 
	C271.153259,292.025391 271.059570,267.535461 270.927032,243.045715 
	C270.918518,241.471985 270.718048,239.899292 270.578461,237.924377 
	C268.617645,238.515732 267.180115,238.847870 265.817932,239.374863 
	C232.436722,252.289764 199.035446,265.153839 165.722229,278.242004 
	C161.231308,280.006409 157.405319,280.084351 152.889908,278.275085 
	C123.522972,266.507904 94.056000,254.990250 64.612457,243.414627 
	C60.848003,241.934631 57.029694,240.591614 52.881203,239.053452 
	C52.683262,240.958679 52.462776,242.092514 52.462410,243.226425 
	C52.445267,296.376038 52.474285,349.525726 52.379890,402.675171 
	C52.374226,405.864716 53.718140,407.458313 56.292923,408.863434 
	C89.475342,426.971680 122.599022,445.187927 155.842575,463.182831 
	C157.614731,464.142120 160.761978,464.212494 162.528793,463.285583 
	C195.559814,445.956970 228.478622,428.414398 262.079895,410.584106 
z"/>
<path fill="#EBDD15" opacity="1.000000" stroke="none" 
	d="
M24.292389,139.999969 
	C24.293049,112.335884 24.386570,85.171165 24.197750,58.008415 
	C24.168083,53.740433 25.526192,52.765606 29.583824,52.766987 
	C284.559418,52.853901 539.535034,52.844700 794.510681,52.844257 
	C795.990234,52.844254 797.469788,52.844257 799.500000,52.844257 
	C799.603699,54.839214 799.758728,56.437263 799.759277,58.035362 
	C799.772583,98.698135 799.696106,139.361237 799.870605,180.023270 
	C799.890442,184.657242 798.557007,185.884277 793.977234,185.882416 
	C539.334961,185.778748 284.692627,185.778183 30.050314,185.887207 
	C25.408880,185.889191 24.091019,184.578278 24.191248,179.993896 
	C24.478939,166.834808 24.292391,153.665344 24.292389,139.999969 
M600.787048,113.281517 
	C596.974731,112.858856 593.167603,112.139267 589.348999,112.071449 
	C579.475281,111.896065 579.595581,112.015862 580.001282,102.005028 
	C580.135803,98.687149 581.458862,97.685928 584.571838,97.786674 
	C589.559692,97.948097 594.563110,97.668999 599.548157,97.868652 
	C604.194092,98.054726 603.362854,94.846008 603.514954,92.116814 
	C603.678406,89.182457 603.453308,86.946724 599.422607,87.048645 
	C590.606934,87.271568 581.780029,87.218575 572.961365,87.066536 
	C569.783386,87.011742 569.019104,88.384117 569.031799,91.256592 
	C569.109802,108.898819 569.168030,126.542473 569.006104,144.183563 
	C568.962952,148.891129 571.985535,147.965973 574.703308,148.072159 
	C577.670837,148.188080 580.378601,148.409958 580.129028,143.920120 
	C579.824585,138.444580 580.260986,132.929092 579.989441,127.450089 
	C579.799011,123.607735 581.353638,122.478706 584.944397,122.668976 
	C589.093567,122.888824 593.279480,122.914558 597.414368,122.584930 
	C598.578552,122.492142 599.619690,120.855942 600.864685,119.103188 
	C600.807800,117.433907 600.750916,115.764633 600.787048,113.281517 
M260.759888,146.209610 
	C260.857330,136.591766 260.874542,126.971741 261.136505,117.358391 
	C261.176971,115.873596 262.340546,114.419411 263.181519,113.706039 
	C265.744232,123.875496 268.473083,134.007568 270.774170,144.235886 
	C271.519653,147.549652 273.246094,147.936020 276.042450,147.997513 
	C278.853729,148.059326 280.304047,147.145813 280.917542,144.318375 
	C282.187897,138.463501 283.677948,132.655106 285.141327,126.843636 
	C286.783600,120.321899 288.496216,113.817879 290.178223,107.306152 
	C290.607178,107.350060 291.036102,107.393967 291.465057,107.437874 
	C291.544250,109.159897 291.688019,110.881775 291.692017,112.603973 
	C291.715637,122.766930 291.839417,132.932587 291.637787,143.091553 
	C291.565887,146.714905 292.530182,148.086929 296.382324,148.053864 
	C300.044159,148.022430 301.298828,147.048355 301.250854,143.247940 
	C301.057495,127.922569 301.286469,112.592186 301.134277,97.265892 
	C301.019012,85.657967 303.407959,87.539703 290.676147,87.229950 
	C287.795776,87.159874 286.454956,88.185745 285.901276,90.987602 
	C285.095551,95.064941 283.984772,99.082733 282.978516,103.119553 
	C280.788300,111.906082 278.581909,120.688583 276.250305,129.999176 
	C275.503876,129.074722 275.218750,128.875549 275.155670,128.621292 
	C272.510040,117.957436 269.896881,107.285515 267.252563,96.621323 
	C264.452911,85.331001 266.569397,87.717896 255.461349,87.197266 
	C251.046326,86.990334 250.228821,88.816277 250.268585,92.733582 
	C250.437698,109.392517 250.330856,126.054184 250.353180,142.714813 
	C250.355331,144.321396 250.553741,145.927719 250.722733,148.457550 
	C254.236099,147.802338 257.195221,147.250504 260.759888,146.209610 
M309.880280,114.500000 
	C309.881134,124.149605 310.008820,133.801743 309.816162,143.447495 
	C309.745728,146.973755 310.961060,148.102051 314.423737,147.979156 
	C320.737915,147.755112 327.065796,147.923096 333.387939,147.914886 
	C345.296356,147.899445 350.428589,142.999222 350.817871,131.110886 
	C351.026001,124.755142 349.069031,119.327042 343.213379,115.799469 
	C344.274200,114.577805 345.212646,113.649429 345.975616,112.594170 
	C351.924042,104.367119 348.735626,89.513718 339.997894,88.343994 
	C330.282196,87.043350 320.258118,88.046158 309.879669,88.046158 
	C309.879669,96.574722 309.879669,105.037361 309.880280,114.500000 
M731.851440,87.282013 
	C729.034790,87.074005 727.093140,87.504257 727.119629,91.183006 
	C727.246643,108.823235 727.231689,126.465271 727.119812,144.105728 
	C727.099426,147.316650 728.479065,148.042099 731.333923,147.965912 
	C736.822021,147.819458 742.316895,147.940201 747.808899,147.924210 
	C757.905212,147.894821 764.073914,143.522888 767.005615,133.800903 
	C770.151917,123.367767 770.062866,112.754486 767.358398,102.260292 
	C764.759094,92.174187 758.703491,87.574356 748.257080,87.304802 
	C743.101318,87.171768 737.939270,87.281105 731.851440,87.282013 
M624.677063,121.964027 
	C624.833923,123.789871 624.820068,125.649780 625.176453,127.435814 
	C626.960388,136.376419 629.904053,144.919022 639.329102,148.309341 
	C647.583069,151.278412 655.445068,149.880707 661.656189,142.413742 
	C662.992249,145.967484 663.933044,149.851913 669.232056,146.922760 
	C669.232056,137.450500 669.336487,127.809090 669.075745,118.177551 
	C669.048706,117.179169 666.907166,115.501472 665.650146,115.405647 
	C661.176514,115.064613 656.656982,115.387238 652.162964,115.228889 
	C649.281616,115.127373 648.544189,116.389854 648.357117,119.076797 
	C648.068420,123.221329 649.084595,125.510597 653.785278,124.835037 
	C655.346069,124.610725 656.991699,124.977257 658.523926,125.069191 
	C659.173889,133.015640 655.676819,138.576920 649.716553,139.648911 
	C643.616028,140.746124 638.869751,137.233917 636.825806,129.889465 
	C634.444214,121.331413 634.600159,112.737297 637.123962,104.242889 
	C638.753967,98.756721 642.558899,95.747231 647.498108,95.613861 
	C652.548096,95.477501 655.297607,97.797523 657.532898,103.591454 
	C658.031616,104.884010 659.303772,106.575348 660.451904,106.779800 
	C663.112549,107.253563 665.915039,106.930511 668.640015,106.930511 
	C668.623840,95.627701 662.554688,88.118240 652.621826,86.293747 
	C640.712158,84.106148 630.609253,89.248016 627.320007,100.440407 
	C625.385437,107.023254 625.416382,114.183723 624.677063,121.964027 
M517.039307,124.171478 
	C517.677246,127.261459 518.073853,130.425659 518.997009,133.427948 
	C522.163574,143.726334 529.791992,149.573013 539.861389,149.675217 
	C550.167603,149.779846 557.908875,143.931885 561.074890,133.289322 
	C564.089111,123.156944 564.089172,112.884987 561.223328,102.736794 
	C558.079346,91.603638 550.629028,85.898804 539.911987,85.925896 
	C529.401733,85.952469 521.464417,91.831688 518.850830,102.983253 
	C517.318176,109.522758 517.544067,116.474388 517.039307,124.171478 
M675.891296,105.612480 
	C674.161682,115.250000 673.943604,124.864830 677.144409,134.240387 
	C680.559448,144.243378 688.331787,149.799850 698.139709,149.667664 
	C708.292725,149.530853 715.932861,143.722290 718.971497,133.395859 
	C722.105225,122.746307 722.062744,111.982086 718.759827,101.381935 
	C715.502197,90.926979 707.330872,85.452858 696.392151,85.941872 
	C686.185974,86.398125 679.813538,92.302551 675.891296,105.612480 
M200.917786,102.690285 
	C198.486145,89.015869 188.805756,83.045258 174.904922,86.646240 
	C167.340973,88.605675 163.265549,93.935577 162.555664,102.796783 
	C161.854004,111.555626 164.414215,115.924248 172.402496,119.147881 
	C177.027878,121.014442 181.806915,122.503296 186.416138,124.405975 
	C190.897964,126.256081 191.767242,130.097672 190.923111,134.371628 
	C190.099152,138.543488 186.807510,139.714905 183.069473,139.918030 
	C177.603271,140.215073 174.451477,137.664322 172.943695,132.302948 
	C172.577454,131.000671 171.419678,129.126297 170.389740,128.957748 
	C167.560654,128.494720 164.606140,128.797974 161.699905,128.797974 
	C161.960846,139.578354 165.763474,146.466187 173.733932,148.144241 
	C179.371887,149.331238 185.703888,149.251419 191.328171,147.978699 
	C198.992584,146.244339 202.730011,139.841019 202.973038,131.319504 
	C203.222122,122.584984 200.310257,117.731003 192.422897,114.538902 
	C188.114990,112.795448 183.514297,111.767883 179.230560,109.975555 
	C177.245041,109.144821 175.111938,107.594475 174.079178,105.781616 
	C171.911041,101.975830 173.847000,97.354256 177.667953,95.848717 
	C182.503723,93.943336 187.496552,96.183754 189.430267,101.126801 
	C191.262817,105.811241 196.491547,106.917274 200.917786,102.690285 
M152.287399,105.235878 
	C155.091171,105.457504 156.083359,104.467247 155.633118,101.442284 
	C153.804535,89.156334 143.069977,83.027321 129.531677,86.735069 
	C121.902275,88.824547 117.672409,94.596451 117.230026,103.521400 
	C116.825081,111.691048 119.745804,116.238289 127.459137,119.233093 
	C132.106781,121.037605 136.874069,122.549576 141.458206,124.497520 
	C145.626343,126.268692 146.676270,129.895889 145.907501,134.046722 
	C145.145248,138.162399 142.114029,139.652161 138.290131,139.919815 
	C132.721680,140.309616 129.217316,138.078094 128.138000,132.579147 
	C127.498291,129.319916 126.028053,128.494766 123.100822,128.721664 
	C121.024384,128.882614 118.925407,128.752869 116.905655,128.752869 
	C116.205727,138.351532 120.289719,145.389450 127.923759,148.094193 
	C134.248154,150.334930 140.715286,150.207108 146.993866,147.916931 
	C154.779266,145.077133 157.575928,138.787216 157.822266,131.047318 
	C158.086243,122.752975 154.956390,117.643394 147.491592,114.615273 
	C143.188614,112.869751 138.703461,111.559578 134.265121,110.165489 
	C130.051102,108.841858 127.807518,106.157082 128.216110,101.666519 
	C128.545563,98.045837 130.704941,95.913246 134.252151,95.377747 
	C138.681610,94.709053 142.763855,96.048752 143.846664,100.500565 
	C144.985733,105.183807 147.604477,105.703339 152.287399,105.235878 
M457.447266,93.145424 
	C450.623322,106.648560 454.300385,115.877357 468.422058,120.748291 
	C471.723114,121.886909 475.054871,122.966339 478.270081,124.316849 
	C482.673309,126.166374 483.814697,129.818130 482.991821,134.193283 
	C482.146790,138.686172 478.720856,139.800110 474.791077,139.917999 
	C469.541046,140.075500 466.113739,137.662048 465.187256,132.423782 
	C464.649414,129.382690 463.383087,128.527191 460.597351,128.722260 
	C458.349548,128.879669 456.081909,128.754166 453.578888,128.754166 
	C453.813660,137.406570 456.012329,144.552994 463.837402,147.358749 
	C468.768616,149.126877 474.589111,149.303604 479.910004,148.892120 
	C488.333496,148.240707 493.737091,142.250626 494.834747,133.904343 
	C496.092560,124.340355 492.819458,117.943863 484.520721,114.580238 
	C479.749725,112.646484 474.729218,111.337624 469.896454,109.544243 
	C465.990448,108.094772 464.883209,104.865974 465.463409,101.039474 
	C466.061493,97.094795 468.868011,95.434578 472.530273,95.246124 
	C477.078522,95.012093 480.480682,97.151062 481.494080,101.574379 
	C482.243439,104.844986 483.921478,105.467049 486.745514,105.261917 
	C488.678345,105.121521 490.629578,105.235023 492.851715,105.235023 
	C492.851715,103.607170 492.985352,102.620483 492.830322,101.681458 
	C491.703491,94.856262 488.887848,89.056023 481.674072,87.146965 
	C472.943085,84.836395 464.437561,84.695198 457.447266,93.145424 
M425.991028,111.717514 
	C425.682190,108.146988 425.379578,104.575897 425.062500,101.006104 
	C424.822205,98.300591 426.279327,97.590683 428.702545,97.623955 
	C434.365997,97.701721 440.039093,97.456970 445.693390,97.695511 
	C449.888214,97.872467 449.674316,95.305046 449.623260,92.504883 
	C449.574127,89.810944 450.066101,87.120003 445.780487,87.213898 
	C436.621552,87.414574 427.453796,87.365791 418.292603,87.225395 
	C415.171051,87.177567 414.278595,88.450455 414.292236,91.382797 
	C414.373596,108.876053 414.405243,126.370461 414.268738,143.863037 
	C414.241791,147.315948 415.654785,148.041199 418.742065,147.986267 
	C427.402863,147.832230 436.071075,147.802002 444.730316,147.994431 
	C448.367035,148.075256 450.128479,147.412949 450.086700,143.131454 
	C450.045654,138.919586 448.714203,137.454224 444.610565,137.862610 
	C441.806030,138.141708 438.951263,137.915848 436.118958,137.915833 
	C424.395721,137.915787 424.477356,137.919388 424.998840,126.027542 
	C425.119385,123.278557 425.953949,122.117348 428.780334,122.186554 
	C433.941895,122.312935 439.115051,122.059883 444.271881,122.260254 
	C448.597656,122.428337 447.981049,119.553566 448.026825,116.913216 
	C448.071747,114.323578 448.323608,111.868599 444.377411,111.995445 
	C438.553772,112.182640 432.718048,111.994629 425.991028,111.717514 
M219.606323,101.580437 
	C219.265610,98.475403 220.812515,97.529167 223.729095,97.583054 
	C230.341187,97.705193 236.957077,97.621498 243.702576,97.621498 
	C243.702576,93.895653 243.702576,90.853310 243.702576,87.615311 
	C232.073685,87.615311 220.846573,87.615311 209.420959,87.615311 
	C209.420959,107.786850 209.420959,127.626785 209.420959,147.909668 
	C220.284317,147.909668 230.739243,147.892868 241.194061,147.917862 
	C245.429382,147.927994 244.103882,144.757416 244.274155,142.533997 
	C244.458817,140.122940 244.495819,137.747009 240.883987,137.907196 
	C237.562027,138.054504 234.226166,138.005615 230.899841,137.916199 
	C217.662567,137.560333 219.882217,140.681824 219.564713,126.199112 
	C219.497742,123.144531 220.675552,122.075249 223.665070,122.163536 
	C228.819855,122.315773 233.984406,122.112785 239.141418,122.221771 
	C243.149124,122.306473 242.583221,119.514771 242.598694,117.072937 
	C242.614349,114.604698 243.107193,111.838890 239.082886,112.031807 
	C235.761993,112.191002 232.427170,112.058403 229.098526,112.058365 
	C219.600800,112.058243 219.600800,112.058899 219.606323,101.580437 
M101.483475,97.963722 
	C100.881950,95.713417 100.114441,93.492371 99.711609,91.207039 
	C98.709267,85.520576 94.294853,87.660728 91.001663,87.308289 
	C87.985336,86.985489 85.781197,87.371620 84.789154,91.193657 
	C81.028107,105.683922 76.851395,120.066200 72.841965,134.492157 
	C71.659622,138.746201 70.516273,143.011063 69.338898,147.330261 
	C79.933456,148.941711 80.201675,148.999252 82.146591,139.932526 
	C83.127495,135.359772 84.929802,133.736832 89.756027,133.932220 
	C99.999390,134.346954 99.889450,134.091354 103.398079,144.400070 
	C103.905464,145.890793 106.082840,147.319504 107.760468,147.778183 
	C109.886032,148.359314 112.290947,147.918655 115.406639,147.918655 
	C110.709236,131.005569 106.227501,114.868996 101.483475,97.963722 
M381.445343,137.416962 
	C378.618622,137.416885 375.775116,137.221939 372.969299,137.464157 
	C369.132111,137.795425 367.725372,136.496597 367.796021,132.449249 
	C368.028229,119.151192 367.740540,105.844109 367.967743,92.545883 
	C368.038849,88.384789 366.707520,87.094994 362.576996,87.139168 
	C358.641022,87.181267 356.995789,88.050354 357.069794,92.400146 
	C357.318695,107.028236 357.163300,121.663177 357.164795,136.295502 
	C357.165985,147.938095 357.167419,147.938065 368.953064,147.937912 
	C376.197845,147.937820 383.442596,147.937881 390.667694,147.937881 
	C390.667694,144.050140 390.667694,140.982269 390.667694,137.417526 
	C387.673706,137.417526 385.046021,137.417526 381.445343,137.416962 
M405.682373,146.976440 
	C405.803345,128.218765 405.922882,109.461082 406.046204,90.703423 
	C406.078308,85.816750 402.351593,87.670235 399.907654,87.310890 
	C396.689545,86.837723 395.551025,88.259361 395.575745,91.529976 
	C395.697632,107.643974 395.628937,123.759392 395.628632,139.874313 
	C395.628448,148.342392 395.629608,148.344421 404.056122,147.833160 
	C404.381775,147.813400 404.700562,147.680664 405.682373,146.976440 
z"/>
<path fill="#31327D" opacity="1.000000" stroke="none" 
	d="
M375.903198,326.106842 
	C394.461517,370.746338 412.895142,415.023163 431.266724,459.325745 
	C432.370209,461.986725 433.827240,463.114075 436.869873,463.004272 
	C443.976196,462.747925 451.098083,462.922455 458.308685,462.922455 
	C458.893005,452.680939 459.108612,443.049042 460.048859,433.488403 
	C463.221863,401.224548 470.520935,370.049103 486.231934,341.369629 
	C498.293457,319.352112 516.534546,303.226288 538.306580,291.655487 
	C554.254944,283.179657 571.301636,276.685913 588.126465,269.980377 
	C596.223694,266.753204 604.962463,266.227875 613.680908,268.502655 
	C617.125488,269.401367 619.317017,271.172150 620.059448,274.659698 
	C620.890808,278.565125 622.130554,282.438202 622.446594,286.385101 
	C622.851196,291.437714 625.932495,293.650421 630.071228,295.119751 
	C637.392517,297.718994 644.569031,296.256042 651.613220,293.988068 
	C666.848694,289.082916 680.103455,280.377502 693.478088,271.910248 
	C697.155396,269.582214 700.950806,267.440765 704.692017,265.213684 
	C705.097839,265.643005 705.503662,266.072327 705.909485,266.501678 
	C705.052246,268.346161 704.526978,270.463684 703.276184,271.984467 
	C699.369812,276.733948 695.545837,281.643921 691.048889,285.797668 
	C677.011108,298.764099 664.918945,313.885559 648.416870,324.147095 
	C640.793457,328.887573 632.885864,332.192108 623.783875,332.949432 
	C608.486694,334.222229 598.254272,326.838074 591.221863,314.318665 
	C588.751160,309.920135 587.012634,310.656921 583.649902,312.877930 
	C574.262756,319.077942 569.377441,328.643951 564.868164,338.222351 
	C553.076477,363.269836 545.390869,389.575989 543.028137,417.247772 
	C541.923767,430.181915 541.562134,443.178040 540.601074,456.126587 
	C540.250061,460.855194 541.645325,462.364563 546.597839,462.346558 
	C596.925232,462.163513 647.253479,462.234863 697.581543,462.234924 
	C699.545776,462.234924 701.510071,462.234894 704.454712,462.234894 
	C703.289551,464.871796 702.666443,466.871643 701.601013,468.598572 
	C694.128540,480.710510 691.044067,493.702087 691.567261,508.036774 
	C692.137695,523.666870 691.412720,539.348816 691.103699,555.005188 
	C690.703674,575.268066 683.099243,593.330505 673.418396,610.618408 
	C657.342285,639.326965 636.143738,664.147766 613.719727,687.970886 
	C601.276611,701.190369 589.033386,714.668213 575.703552,726.947754 
	C570.501404,731.740051 562.854736,734.892944 555.806152,736.431091 
	C544.989929,738.791443 533.733765,740.075562 522.655029,740.136230 
	C461.496613,740.471191 400.333252,740.022766 339.176849,740.504944 
	C325.335541,740.614014 313.361542,736.965637 301.990967,729.730164 
	C275.074341,712.602234 251.756241,691.218140 230.172852,667.981812 
	C216.491302,653.252502 203.945862,637.467896 190.890915,622.156555 
	C191.253784,621.847412 191.616638,621.538269 191.979507,621.229126 
	C192.089661,620.947815 192.115952,620.543396 192.322083,620.403015 
	C199.615341,615.434448 199.551453,615.509033 205.979019,621.489929 
	C227.071213,641.116638 249.638077,658.678284 276.554108,669.695007 
	C281.645264,671.778870 287.505219,672.877502 293.017487,672.902771 
	C355.175659,673.187439 417.335358,673.120728 479.494385,673.260010 
	C516.149414,673.342224 552.804382,673.580872 589.458313,673.883301 
	C593.058655,673.912964 595.730103,673.062317 598.217896,670.333923 
	C604.052307,663.935181 610.291443,657.905640 616.130066,651.510498 
	C617.562500,649.941528 618.880249,647.553162 618.907471,645.523499 
	C619.278748,617.868347 619.419678,590.210022 619.586853,562.552307 
	C619.594482,561.287720 619.313660,560.021484 619.097107,558.150208 
	C616.158691,560.473572 613.871155,562.657715 611.243164,564.295593 
	C599.535706,571.591980 587.789673,578.832092 575.907959,585.838745 
	C573.714783,587.132080 570.864319,587.617554 568.259827,587.860413 
	C532.481079,591.196045 502.633331,580.131165 480.172211,551.310974 
	C479.472260,550.412903 478.680206,549.586487 477.522400,548.257568 
	C471.229126,554.967957 465.386810,561.752563 458.945099,567.910095 
	C452.491364,574.079224 446.064301,580.657593 438.514191,585.215820 
	C424.453796,593.704529 404.970886,589.296387 394.739319,576.363708 
	C384.788818,563.786316 379.180817,548.900696 373.018829,534.339600 
	C367.049255,520.233032 361.142212,506.098846 355.369751,491.910828 
	C354.116119,488.829437 352.476074,487.641174 349.032440,487.843536 
	C332.404999,488.820709 315.765106,489.608063 299.122528,490.289307 
	C295.321350,490.444916 293.414856,491.855652 291.916565,495.541901 
	C284.463898,513.877808 277.273132,532.369629 268.696167,550.183472 
	C261.836121,564.431396 251.777786,576.475464 237.265381,584.089172 
	C223.203934,591.466248 209.197754,589.259155 195.161713,584.275024 
	C185.600098,580.879761 176.963425,576.035828 170.528610,567.890564 
	C166.300522,562.538696 164.825241,557.656738 168.800949,550.778198 
	C181.217453,529.295654 192.826797,507.345642 204.683426,485.541138 
	C208.607315,478.325043 210.417953,477.416962 219.577377,479.023163 
	C214.373215,489.668274 209.139023,500.207916 204.066956,510.824982 
	C201.771301,515.630371 199.603561,520.516174 197.721542,525.495483 
	C194.517731,533.971741 197.194611,539.809875 205.895981,541.911987 
	C219.100128,545.102112 231.558853,542.683655 242.041779,533.915466 
	C245.426056,531.084778 247.504776,526.460999 249.593567,522.358459 
	C255.229584,511.288971 260.549591,500.058594 266.564758,487.723694 
	C260.777069,488.023560 256.432617,488.248688 251.154160,488.522186 
	C254.422028,479.916992 257.253143,471.966919 260.572693,464.226318 
	C261.102478,462.990906 263.880096,461.960236 265.520874,462.088104 
	C273.949005,462.744751 277.811646,459.008575 280.533447,450.926147 
	C288.236267,428.052246 296.986847,405.528992 305.460327,382.918427 
	C307.245392,378.155182 307.432861,373.787170 305.535797,368.913727 
	C300.946442,357.123993 296.973297,345.095245 292.447632,333.279297 
	C291.126190,329.829193 291.624939,327.389587 293.982910,324.747986 
	C307.737671,309.338684 321.415131,293.860352 335.098541,278.387482 
	C339.809448,273.060486 344.462280,267.682129 349.654114,261.740845 
	C358.559479,283.572021 367.162109,304.660980 375.903198,326.106842 
M545.978271,488.056183 
	C543.349548,487.919128 542.888245,489.360138 543.380432,491.561920 
	C543.997253,494.321930 544.476196,497.115509 545.170776,499.855011 
	C550.558105,521.102173 562.701660,536.272827 584.436157,542.180908 
	C588.502014,543.286133 593.467041,543.255920 597.438599,541.967041 
	C602.051208,540.470154 606.279663,537.339539 610.218628,534.322388 
	C616.065552,529.843872 619.163574,523.792908 618.825562,516.168579 
	C618.486694,508.525360 618.095215,500.867188 618.251099,493.226227 
	C618.338135,488.957672 616.844055,487.930664 612.803101,487.962219 
	C590.831787,488.133911 568.858459,488.045654 545.978271,488.056183 
M328.741852,425.741943 
	C327.134430,421.790924 325.527008,417.839905 323.416412,412.652100 
	C316.833588,429.961243 310.721497,446.032593 304.490662,462.416168 
	C317.662689,462.416168 329.982239,462.416168 342.957001,462.416168 
	C338.120941,449.983185 333.549561,438.230530 328.741852,425.741943 
M451.199951,502.317596 
	C454.383209,508.956818 457.839233,515.357605 465.458557,519.468628 
	C463.763184,509.005554 462.300232,499.671539 460.661346,490.368500 
	C460.509338,489.505463 459.267456,488.217682 458.485443,488.183533 
	C453.784515,487.978180 449.070129,488.081573 443.360687,488.081573 
	C446.280975,493.297516 448.611664,497.460388 451.199951,502.317596 
z"/>
<path fill="#34347B" opacity="1.000000" stroke="none" 
	d="
M261.750427,410.750366 
	C228.478622,428.414398 195.559814,445.956970 162.528793,463.285583 
	C160.761978,464.212494 157.614731,464.142120 155.842575,463.182831 
	C122.599022,445.187927 89.475342,426.971680 56.292923,408.863434 
	C53.718140,407.458313 52.374226,405.864716 52.379890,402.675171 
	C52.474285,349.525726 52.445267,296.376038 52.462410,243.226425 
	C52.462776,242.092514 52.683262,240.958679 52.881203,239.053452 
	C57.029694,240.591614 60.848003,241.934631 64.612457,243.414627 
	C94.056000,254.990250 123.522972,266.507904 152.889908,278.275085 
	C157.405319,280.084351 161.231308,280.006409 165.722229,278.242004 
	C199.035446,265.153839 232.436722,252.289764 265.817932,239.374863 
	C267.180115,238.847870 268.617645,238.515732 270.578461,237.924377 
	C270.718048,239.899292 270.918518,241.471985 270.927032,243.045715 
	C271.059570,267.535461 271.153259,292.025391 271.284485,316.515167 
	C271.429108,343.501068 271.408966,370.490417 271.913788,397.469788 
	C272.026367,403.485992 270.620789,407.382996 264.714722,409.167114 
	C263.779144,409.449707 262.955353,410.102478 261.750427,410.750366 
M97.320183,267.197296 
	C88.426231,263.745911 79.532280,260.294525 70.445290,256.768219 
	C70.268326,258.060089 70.142166,258.551575 70.142029,259.043121 
	C70.129456,303.518707 70.093010,347.994385 70.255135,392.469360 
	C70.261139,394.115723 71.818756,396.463257 73.314079,397.292572 
	C100.831528,412.554077 128.431473,427.667694 156.100204,442.653381 
	C157.511276,443.417633 160.041534,443.406830 161.471191,442.654968 
	C190.788956,427.236023 220.039810,411.689117 249.217346,396.006500 
	C250.581161,395.273438 251.957809,393.043182 251.956009,391.511810 
	C251.904663,347.709534 251.680069,303.907501 251.464584,260.105469 
	C251.458313,258.830200 251.246735,257.555908 251.091156,255.843903 
	C249.159958,256.530426 247.628082,257.034180 246.125992,257.615021 
	C218.496857,268.298981 190.902512,279.074768 163.194138,289.548981 
	C160.573868,290.539520 156.924164,290.491455 154.292389,289.496826 
	C135.457687,282.378357 116.762970,274.889465 97.320183,267.197296 
z"/>
<path fill="#3B3A6E" opacity="1.000000" stroke="none" 
	d="
M260.154327,146.698669 
	C257.195221,147.250504 254.236099,147.802338 250.722733,148.457550 
	C250.553741,145.927719 250.355331,144.321396 250.353180,142.714813 
	C250.330856,126.054184 250.437698,109.392517 250.268585,92.733582 
	C250.228821,88.816277 251.046326,86.990334 255.461349,87.197266 
	C266.569397,87.717896 264.452911,85.331001 267.252563,96.621323 
	C269.896881,107.285515 272.510040,117.957436 275.155670,128.621292 
	C275.218750,128.875549 275.503876,129.074722 276.250305,129.999176 
	C278.581909,120.688583 280.788300,111.906082 282.978516,103.119553 
	C283.984772,99.082733 285.095551,95.064941 285.901276,90.987602 
	C286.454956,88.185745 287.795776,87.159874 290.676147,87.229950 
	C303.407959,87.539703 301.019012,85.657967 301.134277,97.265892 
	C301.286469,112.592186 301.057495,127.922569 301.250854,143.247940 
	C301.298828,147.048355 300.044159,148.022430 296.382324,148.053864 
	C292.530182,148.086929 291.565887,146.714905 291.637787,143.091553 
	C291.839417,132.932587 291.715637,122.766930 291.692017,112.603973 
	C291.688019,110.881775 291.544250,109.159897 291.465057,107.437874 
	C291.036102,107.393967 290.607178,107.350060 290.178223,107.306152 
	C288.496216,113.817879 286.783600,120.321899 285.141327,126.843636 
	C283.677948,132.655106 282.187897,138.463501 280.917542,144.318375 
	C280.304047,147.145813 278.853729,148.059326 276.042450,147.997513 
	C273.246094,147.936020 271.519653,147.549652 270.774170,144.235886 
	C268.473083,134.007568 265.744232,123.875496 263.123657,112.935387 
	C262.315155,109.190849 261.564514,106.216957 260.813873,103.243065 
	C260.594025,103.292549 260.374176,103.342026 260.154327,103.391502 
	C260.154327,117.827225 260.154327,132.262955 260.154327,146.698669 
z"/>
<path fill="#393871" opacity="1.000000" stroke="none" 
	d="
M309.879974,114.000000 
	C309.879669,105.037361 309.879669,96.574722 309.879669,88.046158 
	C320.258118,88.046158 330.282196,87.043350 339.997894,88.343994 
	C348.735626,89.513718 351.924042,104.367119 345.975616,112.594170 
	C345.212646,113.649429 344.274200,114.577805 343.213379,115.799469 
	C349.069031,119.327042 351.026001,124.755142 350.817871,131.110886 
	C350.428589,142.999222 345.296356,147.899445 333.387939,147.914886 
	C327.065796,147.923096 320.737915,147.755112 314.423737,147.979156 
	C310.961060,148.102051 309.745728,146.973755 309.816162,143.447495 
	C310.008820,133.801743 309.881134,124.149605 309.879974,114.000000 
M336.512543,122.746620 
	C333.774261,122.276810 331.040894,121.441177 328.296783,121.404396 
	C319.345673,121.284401 320.233887,120.506874 320.300659,129.327240 
	C320.377716,139.509964 318.600403,138.166229 329.764587,138.268570 
	C333.332611,138.301285 337.061523,138.231339 338.676483,134.321747 
	C340.268158,130.468597 340.355286,126.536186 336.512543,122.746620 
M320.259888,105.451584 
	C320.259888,107.537445 320.259888,109.623306 320.259888,112.092896 
	C324.596527,112.092896 328.073853,112.107880 331.550964,112.088882 
	C335.403961,112.067833 337.257050,109.802162 337.858948,106.278816 
	C338.760925,100.998604 336.290070,97.284973 331.325562,97.203438 
	C317.844025,96.982010 320.507874,96.285530 320.259888,105.451584 
z"/>
<path fill="#3B3A70" opacity="1.000000" stroke="none" 
	d="
M732.315796,87.281387 
	C737.939270,87.281105 743.101318,87.171768 748.257080,87.304802 
	C758.703491,87.574356 764.759094,92.174187 767.358398,102.260292 
	C770.062866,112.754486 770.151917,123.367767 767.005615,133.800903 
	C764.073914,143.522888 757.905212,147.894821 747.808899,147.924210 
	C742.316895,147.940201 736.822021,147.819458 731.333923,147.965912 
	C728.479065,148.042099 727.099426,147.316650 727.119812,144.105728 
	C727.231689,126.465271 727.246643,108.823235 727.119629,91.183006 
	C727.093140,87.504257 729.034790,87.074005 732.315796,87.281387 
M758.395203,120.359375 
	C758.312805,117.376144 758.382446,114.379547 758.121521,111.412010 
	C757.037903,99.088982 750.551697,94.714111 737.862610,98.102135 
	C737.862610,110.391602 737.829529,122.817520 737.931091,135.242325 
	C737.938477,136.148254 738.710022,137.536774 739.484131,137.870285 
	C745.675903,140.537903 754.180420,136.935883 756.447754,130.526031 
	C757.483398,127.598114 757.710632,124.384232 758.395203,120.359375 
z"/>
<path fill="#3A3970" opacity="1.000000" stroke="none" 
	d="
M624.620117,121.524208 
	C625.416382,114.183723 625.385437,107.023254 627.320007,100.440407 
	C630.609253,89.248016 640.712158,84.106148 652.621826,86.293747 
	C662.554688,88.118240 668.623840,95.627701 668.640015,106.930511 
	C665.915039,106.930511 663.112549,107.253563 660.451904,106.779800 
	C659.303772,106.575348 658.031616,104.884010 657.532898,103.591454 
	C655.297607,97.797523 652.548096,95.477501 647.498108,95.613861 
	C642.558899,95.747231 638.753967,98.756721 637.123962,104.242889 
	C634.600159,112.737297 634.444214,121.331413 636.825806,129.889465 
	C638.869751,137.233917 643.616028,140.746124 649.716553,139.648911 
	C655.676819,138.576920 659.173889,133.015640 658.523926,125.069191 
	C656.991699,124.977257 655.346069,124.610725 653.785278,124.835037 
	C649.084595,125.510597 648.068420,123.221329 648.357117,119.076797 
	C648.544189,116.389854 649.281616,115.127373 652.162964,115.228889 
	C656.656982,115.387238 661.176514,115.064613 665.650146,115.405647 
	C666.907166,115.501472 669.048706,117.179169 669.075745,118.177551 
	C669.336487,127.809090 669.232056,137.450500 669.232056,146.922760 
	C663.933044,149.851913 662.992249,145.967484 661.656189,142.413742 
	C655.445068,149.880707 647.583069,151.278412 639.329102,148.309341 
	C629.904053,144.919022 626.960388,136.376419 625.176453,127.435814 
	C624.820068,125.649780 624.833923,123.789871 624.620117,121.524208 
z"/>
<path fill="#3A3971" opacity="1.000000" stroke="none" 
	d="
M517.009155,123.706055 
	C517.544067,116.474388 517.318176,109.522758 518.850830,102.983253 
	C521.464417,91.831688 529.401733,85.952469 539.911987,85.925896 
	C550.629028,85.898804 558.079346,91.603638 561.223328,102.736794 
	C564.089172,112.884987 564.089111,123.156944 561.074890,133.289322 
	C557.908875,143.931885 550.167603,149.779846 539.861389,149.675217 
	C529.791992,149.573013 522.163574,143.726334 518.997009,133.427948 
	C518.073853,130.425659 517.677246,127.261459 517.009155,123.706055 
M544.835999,138.641663 
	C546.868958,135.694885 550.328552,132.897415 550.655701,129.772079 
	C551.491882,121.783630 551.606995,113.574059 550.719299,105.596634 
	C550.003052,99.160851 545.174438,95.618484 539.997437,95.617653 
	C535.060791,95.616859 530.981506,99.007500 529.254456,105.167519 
	C526.821960,113.844086 526.817078,122.659180 529.383179,131.285156 
	C531.544983,138.552048 536.639771,140.984726 544.835999,138.641663 
z"/>
<path fill="#393871" opacity="1.000000" stroke="none" 
	d="
M675.970825,105.201126 
	C679.813538,92.302551 686.185974,86.398125 696.392151,85.941872 
	C707.330872,85.452858 715.502197,90.926979 718.759827,101.381935 
	C722.062744,111.982086 722.105225,122.746307 718.971497,133.395859 
	C715.932861,143.722290 708.292725,149.530853 698.139709,149.667664 
	C688.331787,149.799850 680.559448,144.243378 677.144409,134.240387 
	C673.943604,124.864830 674.161682,115.250000 675.970825,105.201126 
M709.666138,109.208405 
	C709.478821,108.397697 709.306335,107.583221 709.101807,106.776871 
	C707.244629,99.455208 703.603088,95.742874 698.156006,95.608978 
	C692.637939,95.473351 687.844910,99.311867 686.881897,106.854218 
	C685.930542,114.305717 686.026855,122.072189 686.978210,129.532852 
	C687.871948,136.541733 692.299377,139.847900 697.858948,139.833435 
	C703.147766,139.819656 707.779541,136.040329 708.800537,129.403091 
	C709.776123,123.060875 709.515747,116.528542 709.666138,109.208405 
z"/>
<path fill="#393871" opacity="1.000000" stroke="none" 
	d="
M200.913147,103.122536 
	C196.491547,106.917274 191.262817,105.811241 189.430267,101.126801 
	C187.496552,96.183754 182.503723,93.943336 177.667953,95.848717 
	C173.847000,97.354256 171.911041,101.975830 174.079178,105.781616 
	C175.111938,107.594475 177.245041,109.144821 179.230560,109.975555 
	C183.514297,111.767883 188.114990,112.795448 192.422897,114.538902 
	C200.310257,117.731003 203.222122,122.584984 202.973038,131.319504 
	C202.730011,139.841019 198.992584,146.244339 191.328171,147.978699 
	C185.703888,149.251419 179.371887,149.331238 173.733932,148.144241 
	C165.763474,146.466187 161.960846,139.578354 161.699905,128.797974 
	C164.606140,128.797974 167.560654,128.494720 170.389740,128.957748 
	C171.419678,129.126297 172.577454,131.000671 172.943695,132.302948 
	C174.451477,137.664322 177.603271,140.215073 183.069473,139.918030 
	C186.807510,139.714905 190.099152,138.543488 190.923111,134.371628 
	C191.767242,130.097672 190.897964,126.256081 186.416138,124.405975 
	C181.806915,122.503296 177.027878,121.014442 172.402496,119.147881 
	C164.414215,115.924248 161.854004,111.555626 162.555664,102.796783 
	C163.265549,93.935577 167.340973,88.605675 174.904922,86.646240 
	C188.805756,83.045258 198.486145,89.015869 200.913147,103.122536 
z"/>
<path fill="#393871" opacity="1.000000" stroke="none" 
	d="
M151.842194,105.236710 
	C147.604477,105.703339 144.985733,105.183807 143.846664,100.500565 
	C142.763855,96.048752 138.681610,94.709053 134.252151,95.377747 
	C130.704941,95.913246 128.545563,98.045837 128.216110,101.666519 
	C127.807518,106.157082 130.051102,108.841858 134.265121,110.165489 
	C138.703461,111.559578 143.188614,112.869751 147.491592,114.615273 
	C154.956390,117.643394 158.086243,122.752975 157.822266,131.047318 
	C157.575928,138.787216 154.779266,145.077133 146.993866,147.916931 
	C140.715286,150.207108 134.248154,150.334930 127.923759,148.094193 
	C120.289719,145.389450 116.205727,138.351532 116.905655,128.752869 
	C118.925407,128.752869 121.024384,128.882614 123.100822,128.721664 
	C126.028053,128.494766 127.498291,129.319916 128.138000,132.579147 
	C129.217316,138.078094 132.721680,140.309616 138.290131,139.919815 
	C142.114029,139.652161 145.145248,138.162399 145.907501,134.046722 
	C146.676270,129.895889 145.626343,126.268692 141.458206,124.497520 
	C136.874069,122.549576 132.106781,121.037605 127.459137,119.233093 
	C119.745804,116.238289 116.825081,111.691048 117.230026,103.521400 
	C117.672409,94.596451 121.902275,88.824547 129.531677,86.735069 
	C143.069977,83.027321 153.804535,89.156334 155.633118,101.442284 
	C156.083359,104.467247 155.091171,105.457504 151.842194,105.236710 
z"/>
<path fill="#393871" opacity="1.000000" stroke="none" 
	d="
M457.665314,92.842377 
	C464.437561,84.695198 472.943085,84.836395 481.674072,87.146965 
	C488.887848,89.056023 491.703491,94.856262 492.830322,101.681458 
	C492.985352,102.620483 492.851715,103.607170 492.851715,105.235023 
	C490.629578,105.235023 488.678345,105.121521 486.745514,105.261917 
	C483.921478,105.467049 482.243439,104.844986 481.494080,101.574379 
	C480.480682,97.151062 477.078522,95.012093 472.530273,95.246124 
	C468.868011,95.434578 466.061493,97.094795 465.463409,101.039474 
	C464.883209,104.865974 465.990448,108.094772 469.896454,109.544243 
	C474.729218,111.337624 479.749725,112.646484 484.520721,114.580238 
	C492.819458,117.943863 496.092560,124.340355 494.834747,133.904343 
	C493.737091,142.250626 488.333496,148.240707 479.910004,148.892120 
	C474.589111,149.303604 468.768616,149.126877 463.837402,147.358749 
	C456.012329,144.552994 453.813660,137.406570 453.578888,128.754166 
	C456.081909,128.754166 458.349548,128.879669 460.597351,128.722260 
	C463.383087,128.527191 464.649414,129.382690 465.187256,132.423782 
	C466.113739,137.662048 469.541046,140.075500 474.791077,139.917999 
	C478.720856,139.800110 482.146790,138.686172 482.991821,134.193283 
	C483.814697,129.818130 482.673309,126.166374 478.270081,124.316849 
	C475.054871,122.966339 471.723114,121.886909 468.422058,120.748291 
	C454.300385,115.877357 450.623322,106.648560 457.665314,92.842377 
z"/>
<path fill="#3C3B6D" opacity="1.000000" stroke="none" 
	d="
M426.439270,111.841965 
	C432.718048,111.994629 438.553772,112.182640 444.377411,111.995445 
	C448.323608,111.868599 448.071747,114.323578 448.026825,116.913216 
	C447.981049,119.553566 448.597656,122.428337 444.271881,122.260254 
	C439.115051,122.059883 433.941895,122.312935 428.780334,122.186554 
	C425.953949,122.117348 425.119385,123.278557 424.998840,126.027542 
	C424.477356,137.919388 424.395721,137.915787 436.118958,137.915833 
	C438.951263,137.915848 441.806030,138.141708 444.610565,137.862610 
	C448.714203,137.454224 450.045654,138.919586 450.086700,143.131454 
	C450.128479,147.412949 448.367035,148.075256 444.730316,147.994431 
	C436.071075,147.802002 427.402863,147.832230 418.742065,147.986267 
	C415.654785,148.041199 414.241791,147.315948 414.268738,143.863037 
	C414.405243,126.370461 414.373596,108.876053 414.292236,91.382797 
	C414.278595,88.450455 415.171051,87.177567 418.292603,87.225395 
	C427.453796,87.365791 436.621552,87.414574 445.780487,87.213898 
	C450.066101,87.120003 449.574127,89.810944 449.623260,92.504883 
	C449.674316,95.305046 449.888214,97.872467 445.693390,97.695511 
	C440.039093,97.456970 434.365997,97.701721 428.702545,97.623955 
	C426.279327,97.590683 424.822205,98.300591 425.062500,101.006104 
	C425.379578,104.575897 425.682190,108.146988 426.439270,111.841965 
z"/>
<path fill="#39396F" opacity="1.000000" stroke="none" 
	d="
M219.604248,102.065628 
	C219.600800,112.058899 219.600800,112.058243 229.098526,112.058365 
	C232.427170,112.058403 235.761993,112.191002 239.082886,112.031807 
	C243.107193,111.838890 242.614349,114.604698 242.598694,117.072937 
	C242.583221,119.514771 243.149124,122.306473 239.141418,122.221771 
	C233.984406,122.112785 228.819855,122.315773 223.665070,122.163536 
	C220.675552,122.075249 219.497742,123.144531 219.564713,126.199112 
	C219.882217,140.681824 217.662567,137.560333 230.899841,137.916199 
	C234.226166,138.005615 237.562027,138.054504 240.883987,137.907196 
	C244.495819,137.747009 244.458817,140.122940 244.274155,142.533997 
	C244.103882,144.757416 245.429382,147.927994 241.194061,147.917862 
	C230.739243,147.892868 220.284317,147.909668 209.420959,147.909668 
	C209.420959,127.626785 209.420959,107.786850 209.420959,87.615311 
	C220.846573,87.615311 232.073685,87.615311 243.702576,87.615311 
	C243.702576,90.853310 243.702576,93.895653 243.702576,97.621498 
	C236.957077,97.621498 230.341187,97.705193 223.729095,97.583054 
	C220.812515,97.529167 219.265610,98.475403 219.604248,102.065628 
z"/>
<path fill="#393970" opacity="1.000000" stroke="none" 
	d="
M101.614624,98.348068 
	C106.227501,114.868996 110.709236,131.005569 115.406639,147.918655 
	C112.290947,147.918655 109.886032,148.359314 107.760468,147.778183 
	C106.082840,147.319504 103.905464,145.890793 103.398079,144.400070 
	C99.889450,134.091354 99.999390,134.346954 89.756027,133.932220 
	C84.929802,133.736832 83.127495,135.359772 82.146591,139.932526 
	C80.201675,148.999252 79.933456,148.941711 69.338898,147.330261 
	C70.516273,143.011063 71.659622,138.746201 72.841965,134.492157 
	C76.851395,120.066200 81.028107,105.683922 84.789154,91.193657 
	C85.781197,87.371620 87.985336,86.985489 91.001663,87.308289 
	C94.294853,87.660728 98.709267,85.520576 99.711609,91.207039 
	C100.114441,93.492371 100.881950,95.713417 101.614624,98.348068 
M94.132088,106.496880 
	C93.449783,105.008415 92.767479,103.519951 91.580910,100.931435 
	C89.553810,109.154686 87.824135,116.171394 85.982796,123.641083 
	C90.266098,123.641083 93.943283,123.641083 98.231491,123.641083 
	C96.896736,117.828728 95.679077,112.526260 94.132088,106.496880 
z"/>
<path fill="#3D3C6D" opacity="1.000000" stroke="none" 
	d="
M381.931854,137.417236 
	C385.046021,137.417526 387.673706,137.417526 390.667694,137.417526 
	C390.667694,140.982269 390.667694,144.050140 390.667694,147.937881 
	C383.442596,147.937881 376.197845,147.937820 368.953064,147.937912 
	C357.167419,147.938065 357.165985,147.938095 357.164795,136.295502 
	C357.163300,121.663177 357.318695,107.028236 357.069794,92.400146 
	C356.995789,88.050354 358.641022,87.181267 362.576996,87.139168 
	C366.707520,87.094994 368.038849,88.384789 367.967743,92.545883 
	C367.740540,105.844109 368.028229,119.151192 367.796021,132.449249 
	C367.725372,136.496597 369.132111,137.795425 372.969299,137.464157 
	C375.775116,137.221939 378.618622,137.416885 381.931854,137.417236 
z"/>
<path fill="#30307D" opacity="1.000000" stroke="none" 
	d="
M600.693970,114.095352 
	C600.750916,115.764633 600.807800,117.433907 600.344177,119.537674 
	C594.200256,120.307999 588.579346,120.838531 582.952515,120.912086 
	C579.118713,120.962212 578.055542,122.903488 578.079163,126.230797 
	C578.116943,131.556671 578.000488,136.884949 578.119690,142.208405 
	C578.179443,144.878555 577.394897,146.146042 574.466370,146.144897 
	C571.455688,146.143723 570.893127,144.696518 570.903198,142.113464 
	C570.966064,125.968773 570.985046,109.823425 570.892090,93.679016 
	C570.872681,90.305405 572.053833,88.836090 575.545410,88.902626 
	C583.032593,89.045296 590.525024,89.003021 598.013916,88.915382 
	C600.560486,88.885582 602.076782,89.372375 602.072144,92.433983 
	C602.067688,95.349770 600.857727,96.226379 598.163330,96.092278 
	C595.340820,95.951782 592.505859,96.062500 589.676331,96.062935 
	C577.681458,96.064766 577.777100,96.062683 578.033508,108.255089 
	C578.117798,112.263786 579.687622,114.016968 583.722900,113.953735 
	C589.377808,113.865120 595.036743,114.035667 600.693970,114.095352 
z"/>
<path fill="#38376D" opacity="1.000000" stroke="none" 
	d="
M405.352478,147.288498 
	C404.700562,147.680664 404.381775,147.813400 404.056122,147.833160 
	C395.629608,148.344421 395.628448,148.342392 395.628632,139.874313 
	C395.628937,123.759392 395.697632,107.643974 395.575745,91.529976 
	C395.551025,88.259361 396.689545,86.837723 399.907654,87.310890 
	C402.351593,87.670235 406.078308,85.816750 406.046204,90.703423 
	C405.922882,109.461082 405.803345,128.218765 405.352478,147.288498 
z"/>
<path fill="#5A5652" opacity="1.000000" stroke="none" 
	d="
M600.740479,113.688431 
	C595.036743,114.035667 589.377808,113.865120 583.722900,113.953735 
	C579.687622,114.016968 578.117798,112.263786 578.033508,108.255089 
	C577.777100,96.062683 577.681458,96.064766 589.676331,96.062935 
	C592.505859,96.062500 595.340820,95.951782 598.163330,96.092278 
	C600.857727,96.226379 602.067688,95.349770 602.072144,92.433983 
	C602.076782,89.372375 600.560486,88.885582 598.013916,88.915382 
	C590.525024,89.003021 583.032593,89.045296 575.545410,88.902626 
	C572.053833,88.836090 570.872681,90.305405 570.892090,93.679016 
	C570.985046,109.823425 570.966064,125.968773 570.903198,142.113464 
	C570.893127,144.696518 571.455688,146.143723 574.466370,146.144897 
	C577.394897,146.146042 578.179443,144.878555 578.119690,142.208405 
	C578.000488,136.884949 578.116943,131.556671 578.079163,126.230797 
	C578.055542,122.903488 579.118713,120.962212 582.952515,120.912086 
	C588.579346,120.838531 594.200256,120.307999 600.270447,119.949921 
	C599.619690,120.855942 598.578552,122.492142 597.414368,122.584930 
	C593.279480,122.914558 589.093567,122.888824 584.944397,122.668976 
	C581.353638,122.478706 579.799011,123.607735 579.989441,127.450089 
	C580.260986,132.929092 579.824585,138.444580 580.129028,143.920120 
	C580.378601,148.409958 577.670837,148.188080 574.703308,148.072159 
	C571.985535,147.965973 568.962952,148.891129 569.006104,144.183563 
	C569.168030,126.542473 569.109802,108.898819 569.031799,91.256592 
	C569.019104,88.384117 569.783386,87.011742 572.961365,87.066536 
	C581.780029,87.218575 590.606934,87.271568 599.422607,87.048645 
	C603.453308,86.946724 603.678406,89.182457 603.514954,92.116814 
	C603.362854,94.846008 604.194092,98.054726 599.548157,97.868652 
	C594.563110,97.668999 589.559692,97.948097 584.571838,97.786674 
	C581.458862,97.685928 580.135803,98.687149 580.001282,102.005028 
	C579.595581,112.015862 579.475281,111.896065 589.348999,112.071449 
	C593.167603,112.139267 596.974731,112.858856 600.740479,113.688431 
z"/>
<path fill="#B5AD72" opacity="1.000000" stroke="none" 
	d="
M260.457092,146.454132 
	C260.154327,132.262955 260.154327,117.827225 260.154327,103.391502 
	C260.374176,103.342026 260.594025,103.292549 260.813873,103.243065 
	C261.564514,106.216957 262.315155,109.190849 263.025269,112.557899 
	C262.340546,114.419411 261.176971,115.873596 261.136505,117.358391 
	C260.874542,126.971741 260.857330,136.591766 260.457092,146.454132 
z"/>
<path fill="#EBDD15" opacity="1.000000" stroke="none" 
	d="
M546.432068,488.051514 
	C568.858459,488.045654 590.831787,488.133911 612.803101,487.962219 
	C616.844055,487.930664 618.338135,488.957672 618.251099,493.226227 
	C618.095215,500.867188 618.486694,508.525360 618.825562,516.168579 
	C619.163574,523.792908 616.065552,529.843872 610.218628,534.322388 
	C606.279663,537.339539 602.051208,540.470154 597.438599,541.967041 
	C593.467041,543.255920 588.502014,543.286133 584.436157,542.180908 
	C562.701660,536.272827 550.558105,521.102173 545.170776,499.855011 
	C544.476196,497.115509 543.997253,494.321930 543.380432,491.561920 
	C542.888245,489.360138 543.349548,487.919128 546.432068,488.051514 
z"/>
<path fill="#E7DA1C" opacity="1.000000" stroke="none" 
	d="
M328.859985,426.109924 
	C333.549561,438.230530 338.120941,449.983185 342.957001,462.416168 
	C329.982239,462.416168 317.662689,462.416168 304.490662,462.416168 
	C310.721497,446.032593 316.833588,429.961243 323.416412,412.652100 
	C325.527008,417.839905 327.134430,421.790924 328.859985,426.109924 
z"/>
<path fill="#E2D528" opacity="1.000000" stroke="none" 
	d="
M451.071167,501.970428 
	C448.611664,497.460388 446.280975,493.297516 443.360687,488.081573 
	C449.070129,488.081573 453.784515,487.978180 458.485443,488.183533 
	C459.267456,488.217682 460.509338,489.505463 460.661346,490.368500 
	C462.300232,499.671539 463.763184,509.005554 465.458557,519.468628 
	C457.839233,515.357605 454.383209,508.956818 451.071167,501.970428 
z"/>
<path fill="#F2F4F6" opacity="1.000000" stroke="none" 
	d="
M97.671982,267.357788 
	C116.762970,274.889465 135.457687,282.378357 154.292389,289.496826 
	C156.924164,290.491455 160.573868,290.539520 163.194138,289.548981 
	C190.902512,279.074768 218.496857,268.298981 246.125992,257.615021 
	C247.628082,257.034180 249.159958,256.530426 251.091156,255.843903 
	C251.246735,257.555908 251.458313,258.830200 251.464584,260.105469 
	C251.680069,303.907501 251.904663,347.709534 251.956009,391.511810 
	C251.957809,393.043182 250.581161,395.273438 249.217346,396.006500 
	C220.039810,411.689117 190.788956,427.236023 161.471191,442.654968 
	C160.041534,443.406830 157.511276,443.417633 156.100204,442.653381 
	C128.431473,427.667694 100.831528,412.554077 73.314079,397.292572 
	C71.818756,396.463257 70.261139,394.115723 70.255135,392.469360 
	C70.093010,347.994385 70.129456,303.518707 70.142029,259.043121 
	C70.142166,258.551575 70.268326,258.060089 70.445290,256.768219 
	C79.532280,260.294525 88.426231,263.745911 97.671982,267.357788 
M202.761383,319.996796 
	C203.771805,319.356537 204.782227,318.716248 205.922882,317.993469 
	C208.337982,326.196960 207.040710,336.969299 203.308380,341.642517 
	C207.395462,341.550568 210.182678,340.603699 210.509735,337.302673 
	C211.219452,330.139404 210.879745,322.863892 210.760666,315.637695 
	C210.746323,314.767517 209.443710,313.918549 208.699799,313.013031 
	C206.335617,314.716400 204.214203,316.244843 202.087997,316.899414 
	C202.357697,312.716034 202.627411,308.532623 202.877792,304.648865 
	C201.057526,305.100525 198.865036,305.644501 197.642136,305.947937 
	C196.869644,308.775818 196.113388,311.489136 195.396179,314.212738 
	C195.238831,314.810272 194.915039,315.685699 195.183640,316.025482 
	C199.399826,321.359039 196.983429,327.505554 196.683640,333.094482 
	C196.501801,336.484711 197.105484,337.751923 200.247360,339.353119 
	C201.146500,337.620972 202.537842,336.149109 202.576508,334.642578 
	C202.698792,329.875732 202.315216,325.095917 202.761383,319.996796 
M133.344406,304.729004 
	C131.288757,305.286560 129.233109,305.844086 127.176132,306.402008 
	C127.176132,315.632233 127.176132,325.333557 127.176132,335.189911 
	C129.112930,336.394989 131.195160,337.690552 133.457504,339.098175 
	C134.771423,337.646790 135.962097,336.331543 136.783020,335.424713 
	C135.271393,333.668060 132.949371,332.214905 132.956970,330.774017 
	C133.002228,322.182404 133.585327,313.593597 134.235916,304.865234 
	C134.182831,304.932343 134.129745,304.999420 133.344406,304.729004 
M186.174530,333.032623 
	C186.160385,325.726288 186.146255,318.419983 186.906570,311.089539 
	C191.136108,310.944366 193.612488,308.959106 194.059662,305.100494 
	C190.986694,305.100494 188.176270,305.318542 185.415573,305.041321 
	C182.447342,304.743317 179.547546,303.766052 176.579346,303.465118 
	C170.392288,302.837860 166.323410,305.485229 164.779053,310.445770 
	C166.916962,310.648926 169.147430,310.860870 170.693832,311.331390 
	C166.994858,316.077942 165.098999,321.366119 165.935898,327.442749 
	C166.945801,334.775360 173.343735,339.923645 181.064087,339.657593 
	C187.970551,339.419556 192.905289,334.665558 193.367676,328.168549 
	C191.326828,329.904144 189.079758,331.815094 186.174530,333.032623 
M158.733353,383.020569 
	C159.880417,381.231049 161.027466,379.441498 162.387909,377.319092 
	C159.776581,377.442261 157.361984,378.288208 156.482025,377.474518 
	C152.005432,373.334991 149.260056,378.240204 148.131073,380.072815 
	C146.736557,382.336456 146.707550,387.162537 148.280273,389.124603 
	C150.570969,391.982361 149.799561,393.811981 148.656647,396.179626 
	C147.894135,397.759155 146.926743,399.239807 145.620621,401.514160 
	C147.752762,401.069458 148.980682,400.649231 150.223434,400.599487 
	C151.516983,400.547699 152.852249,400.734375 154.121277,401.025787 
	C157.857162,401.883667 161.642319,398.737244 162.308044,395.016754 
	C163.204941,390.004120 160.816040,386.478638 158.004883,382.948151 
	C158.004883,382.948151 158.018280,383.017212 158.733353,383.020569 
M100.101433,325.774689 
	C98.912582,328.507111 97.723732,331.239532 96.526787,333.990540 
	C106.431099,339.486115 106.431099,339.486115 113.751404,334.771881 
	C115.012230,336.353699 116.280800,337.945221 117.828850,339.887390 
	C119.912163,337.946594 121.556442,336.414795 123.272110,334.816498 
	C117.534851,331.163574 120.563057,325.827454 120.120178,321.372986 
	C119.631706,316.459991 120.008698,311.460999 120.008698,305.998810 
	C115.256645,305.213440 110.460030,303.508392 105.837875,303.894104 
	C100.401619,304.347687 96.734436,308.153687 95.416534,314.517029 
	C94.537926,319.042419 95.311272,322.853546 100.101433,325.774689 
M101.111557,374.628937 
	C98.928528,379.159363 95.834221,383.491211 94.792625,388.270416 
	C93.484238,394.273743 97.563080,399.999237 102.705597,401.739777 
	C109.815819,404.146271 120.052780,400.094025 123.583679,392.911285 
	C124.892548,390.248749 125.826233,386.563629 125.031670,383.914551 
	C124.008263,380.502502 121.076141,377.662994 118.750198,374.261047 
	C119.922081,373.155396 121.729538,371.450104 124.006248,369.302063 
	C121.364410,369.124573 119.307426,369.607697 118.130363,368.803253 
	C111.959442,364.586029 108.140015,368.982147 103.954788,372.266357 
	C103.171387,372.881073 102.408401,373.521790 101.111557,374.628937 
M167.191818,386.620941 
	C166.809494,390.056335 166.427170,393.491730 166.025070,397.104797 
	C166.341446,400.017181 166.698593,403.304688 167.055878,406.593567 
	C168.794754,407.157196 171.077896,407.897217 173.347351,408.632782 
	C172.816895,405.880768 172.319931,403.302460 171.750214,400.346710 
	C176.538986,401.672211 181.484268,398.114838 181.675720,393.877014 
	C181.825928,390.552124 182.177612,387.122894 181.555389,383.911346 
	C181.028503,381.191772 179.234451,378.717651 178.001190,376.134949 
	C176.131256,377.221344 174.261337,378.307770 172.371506,379.405731 
	C169.033035,374.607513 168.874420,374.607849 165.770264,378.856689 
	C166.344070,381.616974 166.768509,383.658722 167.191818,386.620941 
M141.739716,378.952057 
	C139.867477,377.937927 137.995224,376.923767 136.442444,376.082642 
	C129.964127,378.145630 128.076508,382.500061 128.941269,388.658356 
	C129.344467,391.529633 129.010193,394.504486 129.010193,397.890625 
	C131.041733,398.969818 133.762756,400.415283 136.573654,401.908508 
	C138.922256,400.171783 142.859314,398.699585 143.038391,396.861298 
	C143.602051,391.075226 142.754364,385.151642 141.739716,378.952057 
M146.753525,315.577942 
	C146.974319,311.899170 147.195114,308.220428 147.400558,304.797516 
	C145.264542,305.273499 143.054977,305.765839 140.973419,306.229645 
	C140.973419,315.538025 140.973419,325.345276 140.973419,335.273529 
	C142.874680,336.425873 144.972076,337.697083 147.316666,339.118134 
	C148.700287,337.603912 149.974030,336.209961 151.247772,334.816010 
	C150.664261,334.871857 150.080734,334.927673 149.497223,334.983490 
	C148.500656,332.827240 146.878967,330.736328 146.645370,328.500366 
	C146.234314,324.565826 146.671585,320.542664 146.753525,315.577942 
M202.131729,393.823547 
	C201.914429,395.109344 201.697144,396.395111 201.474136,397.714691 
	C203.754745,399.109650 205.969482,400.464294 208.295654,401.887146 
	C209.671036,400.336548 210.857803,398.998596 211.615265,398.144653 
	C210.097427,396.386353 207.812195,394.969360 207.766479,393.483490 
	C207.499130,384.797485 207.756119,376.095367 207.833786,367.653351 
	C206.545212,367.968445 204.226852,368.535339 202.138550,369.045959 
	C202.138550,376.744476 202.138550,384.847015 202.131729,393.823547 
M189.308777,377.853455 
	C186.576920,379.050690 185.439682,380.979980 185.608261,384.102661 
	C185.873611,389.018005 185.678772,393.958252 185.678772,399.109406 
	C191.480362,402.031647 191.480362,402.031647 194.750992,398.408234 
	C191.233185,396.625824 189.147369,393.699677 191.349518,390.149017 
	C193.089447,387.343628 196.150772,385.357727 198.752716,382.886841 
	C197.065002,380.857086 195.564163,379.289764 194.346039,377.527100 
	C192.812164,375.307556 191.429352,375.946167 189.308777,377.853455 
M228.900711,320.377747 
	C227.101898,317.876221 225.303085,315.374725 223.659729,313.089417 
	C217.570679,315.090637 215.272522,318.650513 216.045319,324.544891 
	C216.548920,328.386047 216.140228,332.346832 216.140228,336.413910 
	C222.206451,339.242096 222.206451,339.242096 225.710144,335.459625 
	C219.581940,331.851440 219.297531,329.347870 224.486847,324.680450 
	C225.847229,323.456848 227.209930,322.235809 228.900711,320.377747 
z"/>
<path fill="#E1D524" opacity="1.000000" stroke="none" 
	d="
M336.834747,122.972900 
	C340.355286,126.536186 340.268158,130.468597 338.676483,134.321747 
	C337.061523,138.231339 333.332611,138.301285 329.764587,138.268570 
	C318.600403,138.166229 320.377716,139.509964 320.300659,129.327240 
	C320.233887,120.506874 319.345673,121.284401 328.296783,121.404396 
	C331.040894,121.441177 333.774261,122.276810 336.834747,122.972900 
z"/>
<path fill="#E0D428" opacity="1.000000" stroke="none" 
	d="
M320.260590,104.983696 
	C320.507874,96.285530 317.844025,96.982010 331.325562,97.203438 
	C336.290070,97.284973 338.760925,100.998604 337.858948,106.278816 
	C337.257050,109.802162 335.403961,112.067833 331.550964,112.088882 
	C328.073853,112.107880 324.596527,112.092896 320.259888,112.092896 
	C320.259888,109.623306 320.259888,107.537445 320.260590,104.983696 
z"/>
<path fill="#E8DB1D" opacity="1.000000" stroke="none" 
	d="
M758.349854,120.829712 
	C757.710632,124.384232 757.483398,127.598114 756.447754,130.526031 
	C754.180420,136.935883 745.675903,140.537903 739.484131,137.870285 
	C738.710022,137.536774 737.938477,136.148254 737.931091,135.242325 
	C737.829529,122.817520 737.862610,110.391602 737.862610,98.102135 
	C750.551697,94.714111 757.037903,99.088982 758.121521,111.412010 
	C758.382446,114.379547 758.312805,117.376144 758.349854,120.829712 
z"/>
<path fill="#E9DB1A" opacity="1.000000" stroke="none" 
	d="
M544.487061,138.803619 
	C536.639771,140.984726 531.544983,138.552048 529.383179,131.285156 
	C526.817078,122.659180 526.821960,113.844086 529.254456,105.167519 
	C530.981506,99.007500 535.060791,95.616859 539.997437,95.617653 
	C545.174438,95.618484 550.003052,99.160851 550.719299,105.596634 
	C551.606995,113.574059 551.491882,121.783630 550.655701,129.772079 
	C550.328552,132.897415 546.868958,135.694885 544.487061,138.803619 
z"/>
<path fill="#E8DA1A" opacity="1.000000" stroke="none" 
	d="
M709.732422,109.644089 
	C709.515747,116.528542 709.776123,123.060875 708.800537,129.403091 
	C707.779541,136.040329 703.147766,139.819656 697.858948,139.833435 
	C692.299377,139.847900 687.871948,136.541733 686.978210,129.532852 
	C686.026855,122.072189 685.930542,114.305717 686.881897,106.854218 
	C687.844910,99.311867 692.637939,95.473351 698.156006,95.608978 
	C703.603088,95.742874 707.244629,99.455208 709.101807,106.776871 
	C709.306335,107.583221 709.478821,108.397697 709.732422,109.644089 
z"/>
<path fill="#DDD132" opacity="1.000000" stroke="none" 
	d="
M94.296753,106.860336 
	C95.679077,112.526260 96.896736,117.828728 98.231491,123.641083 
	C93.943283,123.641083 90.266098,123.641083 85.982796,123.641083 
	C87.824135,116.171394 89.553810,109.154686 91.580910,100.931435 
	C92.767479,103.519951 93.449783,105.008415 94.296753,106.860336 
z"/>
<path fill="#414182" opacity="1.000000" stroke="none" 
	d="
M101.373779,374.389740 
	C102.408401,373.521790 103.171387,372.881073 103.954788,372.266357 
	C108.140015,368.982147 111.959442,364.586029 118.130363,368.803253 
	C119.307426,369.607697 121.364410,369.124573 124.006248,369.302063 
	C121.729538,371.450104 119.922081,373.155396 118.750198,374.261047 
	C121.076141,377.662994 124.008263,380.502502 125.031670,383.914551 
	C125.826233,386.563629 124.892548,390.248749 123.583679,392.911285 
	C120.052780,400.094025 109.815819,404.146271 102.705597,401.739777 
	C97.563080,399.999237 93.484238,394.273743 94.792625,388.270416 
	C95.834221,383.491211 98.928528,379.159363 101.373779,374.389740 
M111.832092,399.178772 
	C114.459892,397.563293 117.087685,395.947845 120.026512,393.727173 
	C120.332306,393.124969 120.638107,392.522766 121.018509,391.173767 
	C121.014771,390.425873 121.011040,389.678009 120.697105,388.028778 
	C120.569176,387.737915 120.441254,387.447021 120.653946,386.619263 
	C118.724388,380.924500 115.418884,379.686005 110.442490,383.237732 
	C109.928299,383.516632 109.414116,383.795502 108.214310,384.416931 
	C106.903374,388.048431 105.592430,391.679901 103.932472,396.278229 
	C105.020996,396.853088 107.052246,397.925842 109.754509,399.012207 
	C110.201462,398.991608 110.648407,398.971039 111.832092,399.178772 
M100.677261,390.526794 
	C101.395226,390.426056 102.737686,390.341675 102.740807,390.222290 
	C102.849136,386.076782 102.831154,381.928009 102.831154,376.501984 
	C99.107162,381.392792 99.757401,385.564087 100.677261,390.526794 
M114.228722,375.817047 
	C112.551018,374.318085 110.873306,372.819122 108.292557,370.513336 
	C108.292557,374.821136 108.292557,377.326691 108.292557,380.855835 
	C110.551537,378.939117 112.115372,377.612213 114.228722,375.817047 
z"/>
<path fill="#3F3F81" opacity="1.000000" stroke="none" 
	d="
M95.975090,314.001434 
	C96.734436,308.153687 100.401619,304.347687 105.837875,303.894104 
	C110.460030,303.508392 115.256645,305.213440 120.008698,305.998810 
	C120.008698,311.460999 119.631706,316.459991 120.120178,321.372986 
	C120.563057,325.827454 117.534851,331.163574 123.272110,334.816498 
	C121.556442,336.414795 119.912163,337.946594 117.828850,339.887390 
	C116.280800,337.945221 115.012230,336.353699 113.751404,334.771881 
	C106.431099,339.486115 106.431099,339.486115 96.526787,333.990540 
	C97.723732,331.239532 98.912582,328.507111 100.343742,325.295807 
	C101.667854,323.846893 102.749657,322.876862 104.147324,321.938477 
	C104.885300,321.994263 105.307411,322.018433 105.943634,322.440674 
	C108.656929,323.011383 111.156105,323.184021 114.238724,323.396912 
	C114.238724,320.454254 114.238724,318.223938 114.443954,315.748291 
	C114.456963,314.336945 114.264748,313.170929 113.939453,311.822479 
	C113.391350,311.550903 112.976326,311.461761 112.100174,311.245178 
	C111.328400,311.045471 111.017746,310.973267 110.838631,310.526398 
	C107.705383,307.006287 102.802208,307.495667 99.358078,311.201233 
	C98.369972,312.264343 97.110260,313.075012 95.975090,314.001434 
M105.660362,327.694641 
	C104.208038,328.129181 102.755722,328.563751 101.303398,328.998291 
	C101.293541,329.678894 101.283684,330.359497 101.273827,331.040100 
	C104.701256,331.956024 108.098640,333.237915 111.577820,333.523590 
	C112.419182,333.592682 113.530769,330.370880 115.077728,327.693970 
	C111.171188,327.693970 108.882797,327.693970 105.660362,327.694641 
z"/>
<path fill="#454585" opacity="1.000000" stroke="none" 
	d="
M167.192383,386.160706 
	C166.768509,383.658722 166.344070,381.616974 165.770264,378.856689 
	C168.874420,374.607849 169.033035,374.607513 172.371506,379.405731 
	C174.261337,378.307770 176.131256,377.221344 178.001190,376.134949 
	C179.234451,378.717651 181.028503,381.191772 181.555389,383.911346 
	C182.177612,387.122894 181.825928,390.552124 181.675720,393.877014 
	C181.484268,398.114838 176.538986,401.672211 171.750214,400.346710 
	C172.319931,403.302460 172.816895,405.880768 173.347351,408.632782 
	C171.077896,407.897217 168.794754,407.157196 167.055878,406.593567 
	C166.698593,403.304688 166.341446,400.017181 166.025070,397.104797 
	C166.427170,393.491730 166.809494,390.056335 167.192383,386.160706 
M172.047867,391.272003 
	C171.800583,394.341888 172.515991,396.528046 176.860550,395.893646 
	C176.163757,390.878387 178.535065,385.555908 175.296234,380.906433 
	C174.579788,380.880493 173.863342,380.854584 173.146896,380.828674 
	C172.780426,384.009949 172.413956,387.191223 172.047867,391.272003 
z"/>
<path fill="#424384" opacity="1.000000" stroke="none" 
	d="
M171.377899,311.072815 
	C169.147430,310.860870 166.916962,310.648926 164.779053,310.445770 
	C166.323410,305.485229 170.392288,302.837860 176.579346,303.465118 
	C179.547546,303.766052 182.447342,304.743317 185.415573,305.041321 
	C188.176270,305.318542 190.986694,305.100494 194.059662,305.100494 
	C193.612488,308.959106 191.136108,310.944366 186.146606,311.070251 
	C184.887436,311.070099 184.388214,311.089203 183.474335,310.991669 
	C182.420486,312.591522 181.309280,314.286438 181.229767,316.028473 
	C180.981552,321.466370 181.945511,327.172577 176.361984,330.979462 
	C175.777008,330.751007 175.412231,330.533112 175.235992,329.917542 
	C175.705566,323.168182 175.986603,316.816467 176.311218,309.479614 
	C174.564438,310.996063 173.834534,311.629730 172.975906,312.013306 
	C172.357422,311.533081 171.867661,311.302948 171.377899,311.072815 
z"/>
<path fill="#3F4082" opacity="1.000000" stroke="none" 
	d="
M142.096375,379.116699 
	C142.754364,385.151642 143.602051,391.075226 143.038391,396.861298 
	C142.859314,398.699585 138.922256,400.171783 136.573654,401.908508 
	C133.762756,400.415283 131.041733,398.969818 129.010193,397.890625 
	C129.010193,394.504486 129.344467,391.529633 128.941269,388.658356 
	C128.076508,382.500061 129.964127,378.145630 136.442444,376.082642 
	C137.995224,376.923767 139.867477,377.937927 142.096375,379.116699 
M133.823730,392.087738 
	C134.898178,393.788757 135.972610,395.489777 137.047058,397.190796 
	C140.176819,385.683044 139.331390,382.477386 133.822311,381.254761 
	C133.822311,384.635406 133.822311,387.910187 133.823730,392.087738 
z"/>
<path fill="#414281" opacity="1.000000" stroke="none" 
	d="
M158.069702,382.920837 
	C160.816040,386.478638 163.204941,390.004120 162.308044,395.016754 
	C161.642319,398.737244 157.857162,401.883667 154.121277,401.025787 
	C152.852249,400.734375 151.516983,400.547699 150.223434,400.599487 
	C148.980682,400.649231 147.752762,401.069458 145.620621,401.514160 
	C146.926743,399.239807 147.894135,397.759155 148.656647,396.179626 
	C149.799561,393.811981 150.570969,391.982361 148.280273,389.124603 
	C146.707550,387.162537 146.736557,382.336456 148.131073,380.072815 
	C149.260056,378.240204 152.005432,373.334991 156.482025,377.474518 
	C157.361984,378.288208 159.776581,377.442261 162.387909,377.319092 
	C161.027466,379.441498 159.880417,381.231049 158.226501,382.672302 
	C155.997803,381.796753 154.275970,381.269440 151.187973,380.323730 
	C152.094482,383.366425 152.635956,385.183868 153.177429,387.001312 
	C154.423401,385.913544 155.662643,384.817902 156.919601,383.743011 
	C157.276413,383.437897 157.684906,383.193207 158.069702,382.920837 
M156.531097,389.429657 
	C154.665817,391.224701 152.800522,393.019745 150.287643,395.437988 
	C153.732559,395.822021 155.735992,396.045349 158.340546,396.335693 
	C157.882568,393.839996 157.516846,391.846924 156.531097,389.429657 
z"/>
<path fill="#3F4082" opacity="1.000000" stroke="none" 
	d="
M175.047455,330.315216 
	C175.412231,330.533112 175.777008,330.751007 176.370209,331.390839 
	C179.025009,332.506042 181.451370,333.199280 184.184021,333.909668 
	C185.271103,333.859863 186.051895,333.792938 186.832687,333.726013 
	C189.079758,331.815094 191.326828,329.904144 193.367676,328.168549 
	C192.905289,334.665558 187.970551,339.419556 181.064087,339.657593 
	C173.343735,339.923645 166.945801,334.775360 165.935898,327.442749 
	C165.098999,321.366119 166.994858,316.077942 171.035858,311.202087 
	C171.867661,311.302948 172.357422,311.533081 172.902161,312.379578 
	C169.515457,321.156921 170.178238,326.648407 175.047455,330.315216 
z"/>
<path fill="#4C4C8A" opacity="1.000000" stroke="none" 
	d="
M146.753571,316.067261 
	C146.671585,320.542664 146.234314,324.565826 146.645370,328.500366 
	C146.878967,330.736328 148.500656,332.827240 149.497223,334.983490 
	C150.080734,334.927673 150.664261,334.871857 151.247772,334.816010 
	C149.974030,336.209961 148.700287,337.603912 147.316666,339.118134 
	C144.972076,337.697083 142.874680,336.425873 140.973419,335.273529 
	C140.973419,325.345276 140.973419,315.538025 140.973419,306.229645 
	C143.054977,305.765839 145.264542,305.273499 147.400558,304.797516 
	C147.195114,308.220428 146.974319,311.899170 146.753571,316.067261 
z"/>
<path fill="#484987" opacity="1.000000" stroke="none" 
	d="
M202.135132,393.386536 
	C202.138550,384.847015 202.138550,376.744476 202.138550,369.045959 
	C204.226852,368.535339 206.545212,367.968445 207.833786,367.653351 
	C207.756119,376.095367 207.499130,384.797485 207.766479,393.483490 
	C207.812195,394.969360 210.097427,396.386353 211.615265,398.144653 
	C210.857803,398.998596 209.671036,400.336548 208.295654,401.887146 
	C205.969482,400.464294 203.754745,399.109650 201.474136,397.714691 
	C201.697144,396.395111 201.914429,395.109344 202.135132,393.386536 
z"/>
<path fill="#474885" opacity="1.000000" stroke="none" 
	d="
M189.617493,377.643066 
	C191.429352,375.946167 192.812164,375.307556 194.346039,377.527100 
	C195.564163,379.289764 197.065002,380.857086 198.752716,382.886841 
	C196.150772,385.357727 193.089447,387.343628 191.349518,390.149017 
	C189.147369,393.699677 191.233185,396.625824 194.750992,398.408234 
	C191.480362,402.031647 191.480362,402.031647 185.678772,399.109406 
	C185.678772,393.958252 185.873611,389.018005 185.608261,384.102661 
	C185.439682,380.979980 186.576920,379.050690 189.617493,377.643066 
z"/>
<path fill="#474786" opacity="1.000000" stroke="none" 
	d="
M133.987885,305.003876 
	C133.585327,313.593597 133.002228,322.182404 132.956970,330.774017 
	C132.949371,332.214905 135.271393,333.668060 136.783020,335.424713 
	C135.962097,336.331543 134.771423,337.646790 133.457504,339.098175 
	C131.195160,337.690552 129.112930,336.394989 127.176132,335.189911 
	C127.176132,325.333557 127.176132,315.632233 127.176132,306.402008 
	C129.233109,305.844086 131.288757,305.286560 133.688965,304.881226 
	C134.033508,305.033417 133.987885,305.003876 133.987885,305.003876 
z"/>
<path fill="#4A4A88" opacity="1.000000" stroke="none" 
	d="
M228.736130,320.695679 
	C227.209930,322.235809 225.847229,323.456848 224.486847,324.680450 
	C219.297531,329.347870 219.581940,331.851440 225.710144,335.459625 
	C222.206451,339.242096 222.206451,339.242096 216.140228,336.413910 
	C216.140228,332.346832 216.548920,328.386047 216.045319,324.544891 
	C215.272522,318.650513 217.570679,315.090637 223.659729,313.089417 
	C225.303085,315.374725 227.101898,317.876221 228.736130,320.695679 
z"/>
<path fill="#414281" opacity="1.000000" stroke="none" 
	d="
M202.127304,320.321136 
	C202.315216,325.095917 202.698792,329.875732 202.576508,334.642578 
	C202.537842,336.149109 201.146500,337.620972 200.247360,339.353119 
	C197.105484,337.751923 196.501801,336.484711 196.683640,333.094482 
	C196.983429,327.505554 199.399826,321.359039 195.183640,316.025482 
	C194.915039,315.685699 195.238831,314.810272 195.396179,314.212738 
	C196.113388,311.489136 196.869644,308.775818 197.642136,305.947937 
	C198.865036,305.644501 201.057526,305.100525 202.877792,304.648865 
	C202.627411,308.532623 202.357697,312.716034 202.071060,317.760956 
	C202.078522,319.188721 202.102921,319.754913 202.127304,320.321136 
z"/>
<path fill="#454684" opacity="1.000000" stroke="none" 
	d="
M202.444336,320.158966 
	C202.102921,319.754913 202.078522,319.188721 202.073456,318.197876 
	C204.214203,316.244843 206.335617,314.716400 208.699799,313.013031 
	C209.443710,313.918549 210.746323,314.767517 210.760666,315.637695 
	C210.879745,322.863892 211.219452,330.139404 210.509735,337.302673 
	C210.182678,340.603699 207.395462,341.550568 203.308380,341.642517 
	C207.040710,336.969299 208.337982,326.196960 205.922882,317.993469 
	C204.782227,318.716248 203.771805,319.356537 202.444336,320.158966 
z"/>
<path fill="#DEDFF2" opacity="1.000000" stroke="none" 
	d="
M103.831467,321.906860 
	C102.749657,322.876862 101.667854,323.846893 100.266495,324.905762 
	C95.311272,322.853546 94.537926,319.042419 95.695816,314.259216 
	C97.110260,313.075012 98.369972,312.264343 99.358078,311.201233 
	C102.802208,307.495667 107.705383,307.006287 110.508492,310.448212 
	C106.514977,310.220947 103.198524,310.049591 102.867050,315.008087 
	C102.795738,314.982330 102.889557,314.980591 103.332611,314.928711 
	C104.921341,314.630737 106.160843,314.382904 108.433212,313.928589 
	C106.453331,317.361206 105.142403,319.634033 103.831467,321.906860 
z"/>
<path fill="#6E6F8E" opacity="1.000000" stroke="none" 
	d="
M186.503601,333.379333 
	C186.051895,333.792938 185.271103,333.859863 184.162506,333.449646 
	C183.852798,325.684448 183.870895,318.396362 183.889008,311.108307 
	C184.388214,311.089203 184.887436,311.070099 185.759369,311.082336 
	C186.146255,318.419983 186.160385,325.726288 186.503601,333.379333 
z"/>
<path fill="#474786" opacity="1.000000" stroke="none" 
	d="
M134.055084,305.049957 
	C134.129745,304.999420 134.182831,304.932343 134.111908,304.934570 
	C133.987885,305.003876 134.033508,305.033417 134.055084,305.049957 
z"/>
<path fill="#5B5B84" opacity="1.000000" stroke="none" 
	d="
M108.899925,384.074402 
	C109.414116,383.795502 109.928299,383.516632 110.784042,383.513916 
	C111.983063,388.552765 113.962364,389.277893 120.313339,387.156158 
	C120.441254,387.447021 120.569176,387.737915 120.453232,388.488861 
	C117.354713,389.245239 114.500084,389.541504 110.492973,389.957367 
	C111.866386,390.881897 112.675140,391.864990 113.557678,391.936432 
	C116.003311,392.134338 118.479683,391.952393 120.943909,391.920563 
	C120.638107,392.522766 120.332306,393.124969 119.527008,393.888855 
	C112.879753,392.167999 111.365021,393.103699 111.095360,398.950439 
	C110.648407,398.971039 110.201462,398.991608 109.394211,398.541077 
	C108.989250,393.404785 108.944588,388.739594 108.899925,384.074402 
z"/>
<path fill="#E0E0F1" opacity="1.000000" stroke="none" 
	d="
M120.483643,386.887695 
	C113.962364,389.277893 111.983063,388.552765 111.049759,383.391235 
	C115.418884,379.686005 118.724388,380.924500 120.483643,386.887695 
z"/>
<path fill="#DEDFF2" opacity="1.000000" stroke="none" 
	d="
M108.557114,384.245667 
	C108.944588,388.739594 108.989250,393.404785 109.058701,398.534302 
	C107.052246,397.925842 105.020996,396.853088 103.932472,396.278229 
	C105.592430,391.679901 106.903374,388.048431 108.557114,384.245667 
z"/>
<path fill="#D2D3ED" opacity="1.000000" stroke="none" 
	d="
M100.529030,390.129028 
	C99.757401,385.564087 99.107162,381.392792 102.831154,376.501984 
	C102.831154,381.928009 102.849136,386.076782 102.740807,390.222290 
	C102.737686,390.341675 101.395226,390.426056 100.529030,390.129028 
z"/>
<path fill="#E0E0F1" opacity="1.000000" stroke="none" 
	d="
M111.463730,399.064606 
	C111.365021,393.103699 112.879753,392.167999 119.371490,394.191467 
	C117.087685,395.947845 114.459892,397.563293 111.463730,399.064606 
z"/>
<path fill="#DBDBEF" opacity="1.000000" stroke="none" 
	d="
M113.953964,376.051178 
	C112.115372,377.612213 110.551537,378.939117 108.292557,380.855835 
	C108.292557,377.326691 108.292557,374.821136 108.292557,370.513336 
	C110.873306,372.819122 112.551018,374.318085 113.953964,376.051178 
z"/>
<path fill="#D2D3ED" opacity="1.000000" stroke="none" 
	d="
M120.981201,391.547180 
	C118.479683,391.952393 116.003311,392.134338 113.557678,391.936432 
	C112.675140,391.864990 111.866386,390.881897 110.492973,389.957367 
	C114.500084,389.541504 117.354713,389.245239 120.608330,388.939514 
	C121.011040,389.678009 121.014771,390.425873 120.981201,391.547180 
z"/>
<path fill="#E7E8F7" opacity="1.000000" stroke="none" 
	d="
M106.127380,327.694305 
	C108.882797,327.693970 111.171188,327.693970 115.077728,327.693970 
	C113.530769,330.370880 112.419182,333.592682 111.577820,333.523590 
	C108.098640,333.237915 104.701256,331.956024 101.273827,331.040100 
	C101.283684,330.359497 101.293541,329.678894 101.303398,328.998291 
	C102.755722,328.563751 104.208038,328.129181 106.127380,327.694305 
z"/>
<path fill="#E7E8F7" opacity="1.000000" stroke="none" 
	d="
M114.238724,315.993622 
	C114.238724,318.223938 114.238724,320.454254 114.238724,323.396912 
	C111.156105,323.184021 108.656929,323.011383 106.181183,322.181091 
	C108.323517,318.139771 110.442398,314.756195 112.561295,311.372620 
	C112.976326,311.461761 113.391350,311.550903 113.877090,312.221527 
	C114.044785,313.866516 114.141747,314.930084 114.238724,315.993622 
z"/>
<path fill="#5D5E91" opacity="1.000000" stroke="none" 
	d="
M112.100166,311.245178 
	C110.442398,314.756195 108.323517,318.139771 105.967072,321.782990 
	C105.307411,322.018433 104.885300,321.994263 104.147339,321.938477 
	C105.142403,319.634033 106.453331,317.361206 108.433212,313.928589 
	C106.160843,314.382904 104.921341,314.630737 103.344193,314.942352 
	C103.006546,315.006134 103.032188,315.032104 103.032188,315.032104 
	C103.198524,310.049591 106.514977,310.220947 110.376945,310.822845 
	C111.017746,310.973267 111.328400,311.045471 112.100166,311.245178 
z"/>
<path fill="#5D5E91" opacity="1.000000" stroke="none" 
	d="
M114.443947,315.748291 
	C114.141747,314.930084 114.044785,313.866516 114.010178,312.403931 
	C114.264748,313.170929 114.456963,314.336945 114.443947,315.748291 
z"/>
<path fill="#DBDBEF" opacity="1.000000" stroke="none" 
	d="
M172.047668,390.822266 
	C172.413956,387.191223 172.780426,384.009949 173.146896,380.828674 
	C173.863342,380.854584 174.579788,380.880493 175.296234,380.906433 
	C178.535065,385.555908 176.163757,390.878387 176.860550,395.893646 
	C172.515991,396.528046 171.800583,394.341888 172.047668,390.822266 
z"/>
<path fill="#E1E2F5" opacity="1.000000" stroke="none" 
	d="
M183.474335,310.991669 
	C183.870895,318.396362 183.852798,325.684448 183.856216,333.432495 
	C181.451370,333.199280 179.025009,332.506042 176.590424,331.401428 
	C181.945511,327.172577 180.981552,321.466370 181.229767,316.028473 
	C181.309280,314.286438 182.420486,312.591522 183.474335,310.991669 
z"/>
<path fill="#E1E2F5" opacity="1.000000" stroke="none" 
	d="
M175.235992,329.917542 
	C170.178238,326.648407 169.515457,321.156921 173.030884,312.629639 
	C173.834534,311.629730 174.564438,310.996063 176.311218,309.479614 
	C175.986603,316.816467 175.705566,323.168182 175.235992,329.917542 
z"/>
<path fill="#E0E0F1" opacity="1.000000" stroke="none" 
	d="
M133.823029,391.636353 
	C133.822311,387.910187 133.822311,384.635406 133.822311,381.254761 
	C139.331390,382.477386 140.176819,385.683044 137.047058,397.190796 
	C135.972610,395.489777 134.898178,393.788757 133.823029,391.636353 
z"/>
<path fill="#D2D3ED" opacity="1.000000" stroke="none" 
	d="
M156.841095,389.641785 
	C157.516846,391.846924 157.882568,393.839996 158.340546,396.335693 
	C155.735992,396.045349 153.732559,395.822021 150.287643,395.437988 
	C152.800522,393.019745 154.665817,391.224701 156.841095,389.641785 
z"/>
<path fill="#D2D3ED" opacity="1.000000" stroke="none" 
	d="
M158.037292,382.934509 
	C157.684906,383.193207 157.276413,383.437897 156.919601,383.743011 
	C155.662643,384.817902 154.423401,385.913544 153.177429,387.001312 
	C152.635956,385.183868 152.094482,383.366425 151.187973,380.323730 
	C154.275970,381.269440 155.997803,381.796753 157.868958,382.670654 
	C158.018280,383.017212 158.004883,382.948151 158.037292,382.934509 
z"/>
<path fill="#5D5E91" opacity="1.000000" stroke="none" 
	d="
M102.994965,314.992493 
	C102.889557,314.980591 102.795738,314.982330 102.867050,315.008087 
	C103.032188,315.032104 103.006546,315.006134 102.994965,314.992493 
z"/>
</svg>