<?xml version="1.0" standalone="no"?>
<!DOCTYPE svg PUBLIC "-//W3C//DTD SVG 20010904//EN"
 "http://www.w3.org/TR/2001/REC-SVG-20010904/DTD/svg10.dtd">
<svg version="1.0" xmlns="http://www.w3.org/2000/svg"
 width="256.000000pt" height="256.000000pt" viewBox="0 0 256.000000 256.000000"
 preserveAspectRatio="xMidYMid meet">
<metadata>
Created by potrace 1.10, written by Peter Selinger 2001-2011
</metadata>
<g transform="translate(0.000000,256.000000) scale(0.100000,-0.100000)"
fill="#000000" stroke="none">
<path d="M1157 2310 c-304 -34 -592 -209 -760 -462 -409 -614 -95 -1432 621
-1619 101 -26 301 -36 412 -20 394 58 734 347 853 726 39 126 50 218 44 372
-8 206 -54 353 -165 523 -156 241 -409 413 -680 464 -107 20 -233 26 -325 16z
m323 -37 c383 -77 682 -354 796 -738 38 -127 45 -346 16 -486 -39 -188 -126
-357 -255 -495 -97 -104 -181 -166 -312 -229 -173 -83 -246 -100 -450 -100
-154 0 -179 3 -267 27 -185 52 -337 140 -466 270 -351 355 -408 880 -140 1299
100 156 237 277 413 364 214 106 431 135 665 88z"/>
<path d="M1281 2195 c-1 -12 -21 -62 -46 -113 -25 -50 -45 -103 -45 -118 0
-39 50 -84 95 -84 48 0 95 44 95 89 0 17 -18 68 -39 113 -22 46 -44 94 -49
108 -9 22 -11 22 -11 5z m35 -162 c-3 -8 -2 -12 3 -9 23 15 28 -66 6 -84 -21
-18 -36 -1 -40 41 -1 18 -7 35 -14 37 -6 2 -11 8 -11 13 0 6 6 7 13 3 8 -5 8
-2 -2 9 -11 14 -11 20 0 33 12 15 15 14 32 -7 10 -12 15 -29 13 -36z m-69 -37
c1 -19 9 -48 17 -65 14 -26 14 -31 2 -31 -17 0 -56 46 -56 66 0 20 19 64 27
64 5 0 9 -15 10 -34z"/>
<path d="M1878 1964 c-226 -285 -421 -610 -558 -930 -51 -118 -56 -134 -42
-134 13 0 73 121 66 132 -4 7 -2 8 5 4 18 -11 43 55 28 74 -10 13 -10 13 6 1
18 -14 22 -7 19 44 0 11 2 14 5 7 7 -19 53 58 45 77 -3 8 -1 12 5 8 5 -3 16 6
24 21 74 143 248 396 426 618 71 89 86 113 61 98 -8 -5 -9 -2 -5 10 4 9 3 15
-2 11 -6 -3 -14 2 -19 11 -8 14 -19 5 -64 -52z m67 18 c1 -18 -1 -20 -13 -9
-13 10 -15 9 -10 -9 4 -16 -5 -34 -32 -64 -51 -58 -57 -37 -9 34 21 32 39 62
39 68 0 20 23 1 25 -20z m-119 -172 c-14 -17 -26 -26 -26 -20 0 6 -5 8 -10 5
-6 -4 -9 -12 -8 -18 5 -22 -34 -76 -50 -69 -11 4 -14 1 -9 -11 4 -10 -5 -28
-23 -48 -17 -17 -27 -36 -23 -42 3 -6 1 -7 -5 -3 -7 4 -12 2 -12 -4 0 -6 -4
-8 -10 -5 -12 8 10 45 27 45 12 0 18 20 14 43 -1 5 3 6 9 2 5 -3 10 2 10 13 0
10 11 29 25 42 14 13 25 27 25 32 0 4 15 27 33 52 27 37 34 42 46 30 12 -11
10 -17 -13 -44z m-188 -247 c-9 -10 -25 -36 -37 -58 -19 -36 -20 -37 -14 -10
3 17 10 32 15 33 4 2 8 9 8 16 0 14 20 36 34 36 5 0 2 -8 -6 -17z"/>
<path d="M1999 1942 c-8 -11 -46 -57 -85 -103 -180 -214 -421 -569 -408 -602
3 -8 1 -18 -5 -22 -7 -4 -9 1 -5 12 8 28 -26 -21 -67 -96 -27 -50 -34 -72 -28
-91 6 -23 7 -23 8 -3 1 12 6 25 11 28 6 4 10 16 8 28 -2 14 2 22 12 22 29 1
41 15 30 35 -13 25 -12 40 1 17 10 -17 13 -16 31 14 19 31 28 58 30 86 1 7 5
10 10 7 4 -3 3 -14 -2 -25 -6 -10 -8 -19 -6 -19 3 0 12 14 21 30 9 17 52 80
96 141 51 71 77 115 71 121 -6 6 -12 6 -16 -1 -4 -6 -5 -11 -1 -11 3 0 1 -9
-5 -20 -6 -11 -15 -18 -21 -15 -11 7 4 38 32 69 11 11 19 23 19 27 0 4 15 25
34 48 19 22 37 46 39 53 4 10 8 9 16 -2 14 -19 14 -33 1 -25 -15 10 -42 -16
-35 -33 4 -10 0 -12 -10 -8 -11 4 -15 0 -13 -12 2 -9 -2 -16 -7 -15 -13 2 -36
-45 -25 -52 4 -2 49 48 100 111 51 64 120 146 152 183 62 69 97 119 65 93 -9
-8 -21 -10 -28 -6 -7 4 -10 2 -7 -7 2 -7 -9 -27 -26 -43 -17 -17 -30 -33 -29
-37 3 -10 -36 -43 -43 -36 -4 3 3 22 15 41 16 25 27 33 38 29 13 -5 15 -2 10
11 -4 10 -3 15 3 11 6 -3 10 -1 10 6 0 7 9 22 20 34 11 12 16 25 11 33 -6 10
-11 9 -22 -6z m-88 -169 c13 -15 12 -16 -9 -11 -18 5 -21 4 -12 -7 6 -7 7 -15
3 -17 -5 -1 -19 -18 -32 -36 -18 -26 -26 -30 -37 -21 -16 13 -8 33 11 25 8 -3
17 4 20 15 4 10 11 19 16 19 6 0 7 5 4 10 -4 6 -1 17 5 25 15 18 15 19 31 -2z
m-291 -389 c-29 -51 -41 -64 -37 -38 1 11 13 31 25 44 13 14 20 31 17 40 -5
11 -3 12 5 4 8 -8 6 -21 -10 -50z"/>
<path d="M2007 1788 c-46 -46 -117 -123 -158 -172 -130 -156 -123 -145 -107
-164 12 -15 11 -16 -5 -3 -15 12 -19 12 -32 -5 -8 -10 -12 -26 -9 -35 2 -9 -5
-26 -16 -39 -11 -12 -17 -27 -13 -33 3 -6 1 -7 -6 -3 -12 8 -8 19 17 49 8 9
13 20 10 23 -10 9 -140 -186 -134 -201 3 -8 0 -12 -7 -10 -7 2 -22 -12 -34
-31 -13 -19 -19 -33 -15 -30 5 3 9 -1 9 -8 0 -9 -7 -12 -16 -8 -9 3 -13 2 -9
-2 3 -4 -3 -17 -14 -28 -11 -11 -17 -26 -14 -34 3 -8 2 -12 -4 -9 -12 7 -33
-32 -24 -47 4 -7 3 -8 -4 -4 -11 6 -14 0 -11 -20 0 -4 -4 -10 -9 -13 -6 -3
-12 -13 -14 -21 -2 -8 -10 -21 -18 -28 -8 -8 -9 -11 -2 -7 18 9 15 -12 -6 -33
-10 -10 -22 -27 -26 -38 -5 -14 -4 -16 5 -7 11 11 23 8 106 -22 7 -2 10 -11 7
-20 -8 -19 -44 -20 -44 -1 0 13 -20 26 -41 26 -5 0 -9 -8 -9 -17 0 -14 2 -15
9 -5 7 11 10 10 15 -3 8 -23 8 -27 -4 -20 -6 4 -16 2 -23 -4 -19 -15 -224 -8
-240 9 -9 10 -9 12 1 6 6 -4 12 -2 12 4 0 8 9 10 24 6 37 -9 88 5 93 25 3 11
9 16 14 13 5 -3 9 0 9 5 0 19 -22 12 -27 -9 -7 -25 -33 -26 -33 -2 0 11 12 24
26 31 15 6 24 14 21 17 -3 3 -14 1 -25 -5 -26 -14 -92 -14 -92 -1 0 6 -10 10
-22 10 -17 0 -19 -3 -10 -9 11 -7 10 -10 -3 -15 -9 -3 -25 -6 -35 -6 -14 0
-30 -18 -30 -35 0 -2 14 4 31 12 17 9 53 17 79 18 43 2 48 0 48 -20 -1 -18 -5
-21 -26 -17 -24 5 -25 6 -7 14 14 6 10 7 -15 3 -19 -3 -40 -12 -46 -20 -15
-20 -33 -19 -67 4 -20 13 -25 20 -15 24 9 4 7 6 -4 6 -10 1 -18 6 -18 11 0 6
-4 10 -10 10 -5 0 -10 -7 -10 -15 0 -8 4 -15 9 -15 5 0 11 -10 13 -22 2 -18
16 -28 58 -42 79 -28 333 -30 403 -3 67 26 64 51 -7 71 -30 9 -64 16 -75 16
-24 0 -27 12 -8 28 19 15 77 3 77 -17 0 -14 2 -14 10 -1 8 12 16 13 57 2 111
-30 140 -74 66 -102 -57 -21 -67 -34 -19 -26 62 12 111 31 109 44 -2 6 4 9 11
6 16 -6 38 27 28 42 -11 17 -55 44 -71 44 -11 0 -10 -3 4 -13 11 -9 15 -19 10
-27 -5 -9 -2 -10 14 -5 15 5 21 2 21 -9 0 -9 -4 -16 -10 -16 -15 0 -79 68 -71
76 3 4 1 4 -5 1 -7 -4 -29 -1 -51 7 -21 7 -66 17 -100 21 l-61 7 41 66 c33 55
129 198 159 237 5 6 53 69 107 141 55 72 172 205 261 297 159 164 161 166 146
190 -9 13 -13 27 -9 30 3 4 3 7 0 7 -4 0 -44 -37 -90 -82z m97 26 c5 -14 4
-15 -9 -4 -12 10 -15 10 -15 -2 0 -15 -34 -48 -50 -48 -6 0 -9 -5 -7 -11 1 -6
-7 -16 -18 -22 -11 -7 -27 -20 -36 -29 -24 -26 -31 -10 -7 17 13 15 26 21 37
17 14 -5 14 -4 2 11 -11 14 -11 17 0 17 8 0 27 16 44 35 33 38 50 44 59 19z
m-158 -151 c-2 -3 -7 -3 -10 -1 -3 2 -13 -7 -21 -19 -9 -13 -26 -28 -38 -35
-17 -9 -15 -3 11 26 17 20 32 42 32 48 0 7 5 6 15 -2 9 -7 13 -15 11 -17z
m-106 -114 c0 -6 -4 -8 -9 -5 -4 3 -14 -7 -21 -22 -7 -15 -15 -22 -17 -15 -5
15 29 63 40 56 4 -2 7 -9 7 -14z"/>
<path d="M1040 1780 l0 -50 255 0 255 0 0 50 0 50 -255 0 -255 0 0 -50z m500
-1 l0 -39 -245 0 -246 0 3 40 2 40 243 0 243 -1 0 -40z"/>
<path d="M1098 1802 c-16 -3 -33 -30 -24 -39 2 -2 11 3 20 12 15 15 20 12 17
-7 0 -5 4 -8 9 -8 6 0 10 6 10 14 0 8 5 18 12 22 7 5 8 3 3 -6 -6 -9 -4 -11 6
-5 12 7 12 6 0 -9 -14 -16 -12 -17 25 -14 30 2 40 8 42 23 2 15 1 17 -6 6 -8
-11 -10 -11 -15 0 -4 10 -6 9 -6 -3 -1 -10 -5 -18 -11 -18 -5 0 -7 7 -4 15 4
9 0 15 -7 16 -8 0 -23 2 -34 3 -11 1 -27 0 -37 -2z"/>
<path d="M1365 1801 c-9 -8 -5 -41 5 -41 5 0 7 8 4 18 -5 14 -4 14 6 -2 10
-15 14 -16 21 -5 15 23 10 38 -11 36 -12 -1 -23 -3 -25 -6z"/>
<path d="M1434 1801 c-2 -2 -4 -12 -4 -21 0 -14 9 -17 45 -16 39 1 45 3 43 20
-2 15 -11 20 -41 21 -21 0 -40 -1 -43 -4z"/>
<path d="M1233 1782 c1 -15 10 -19 54 -20 29 0 55 3 57 7 7 11 -12 36 -21 28
-4 -5 -1 -12 7 -17 12 -8 10 -10 -7 -10 -12 0 -25 5 -29 12 -4 7 -3 8 4 4 7
-4 12 -2 12 3 0 6 -7 11 -15 11 -8 0 -15 -7 -15 -15 0 -9 -6 -12 -16 -8 -13 5
-13 7 -2 14 9 6 7 9 -9 9 -15 0 -21 -6 -20 -18z"/>
<path d="M1043 1653 c10 -121 61 -221 140 -278 37 -26 51 -30 108 -30 55 0 72
5 107 27 76 51 133 161 148 286 l7 62 -258 0 -258 0 6 -67z m497 46 c0 -5 -6
-7 -12 -3 -10 5 -10 4 -2 -5 13 -14 0 -114 -16 -119 -5 -2 -8 -8 -5 -13 11
-17 -38 -110 -79 -147 -81 -75 -166 -79 -254 -15 -35 26 -65 76 -54 88 4 5 2
5 -5 1 -7 -4 -18 12 -31 46 -11 29 -19 54 -17 56 2 2 17 -4 34 -12 28 -15 33
-15 66 1 34 16 35 19 35 70 0 55 -10 64 -48 44 -11 -5 -30 -3 -52 5 -30 11 -4
13 203 13 160 1 237 -2 237 -10z m-410 -23 c8 0 25 4 38 8 21 7 22 5 22 -37 0
-41 -3 -46 -31 -58 -27 -10 -36 -10 -58 2 -21 12 -27 23 -29 58 -3 41 -2 42
20 35 13 -4 30 -8 38 -8z"/>
<path d="M1470 1691 c0 -15 -33 -23 -41 -10 -5 9 -14 9 -39 -1 -37 -15 -57
-43 -63 -84 -6 -50 -24 -40 -48 28 -22 62 -24 64 -42 48 -10 -9 -16 -24 -13
-35 5 -20 -12 -67 -29 -79 -5 -4 -6 -8 -2 -8 12 0 -12 -40 -24 -40 -7 0 -9 11
-5 28 l6 27 -16 -28 c-32 -59 13 -80 47 -22 25 42 56 47 65 10 9 -38 31 -52
51 -32 15 14 18 14 40 -1 20 -12 29 -13 44 -4 25 16 29 15 29 -7 0 -48 -6 -51
-120 -51 -93 0 -111 3 -134 21 -39 31 -31 6 9 -30 34 -30 40 -31 124 -31 78 0
90 2 108 23 34 37 50 70 56 113 l5 40 -54 -4 -54 -4 6 33 c10 50 24 73 37 60
13 -13 67 16 67 36 0 7 -2 13 -5 13 -3 0 -5 -4 -5 -9z m-42 -158 c-5 -26 -35
-28 -48 -4 -10 19 -8 21 20 21 25 0 31 -4 28 -17z"/>
<path d="M1090 1612 c0 -12 58 -14 65 -2 4 6 -8 10 -29 10 -20 0 -36 -4 -36
-8z"/>
<path d="M848 1168 c-7 -21 3 -48 18 -48 18 0 18 34 0 49 -11 9 -15 9 -18 -1z"/>
<path d="M1181 1130 c-21 -43 -23 -51 -10 -67 16 -21 31 -33 42 -33 14 0 47
40 47 58 0 14 -2 15 -10 2 -10 -16 -12 -15 -27 21 -7 15 -9 36 -6 48 10 38
-12 21 -36 -29z"/>
<path d="M890 1111 c0 -13 50 -71 61 -71 11 0 -19 62 -35 72 -15 10 -26 10
-26 -1z"/>
<path d="M983 1064 c-16 -44 101 -184 130 -155 9 10 7 16 -10 29 -12 9 -37 44
-55 76 -35 64 -54 78 -65 50z"/>
<path d="M1572 1058 c-7 -7 -12 -20 -12 -31 0 -17 1 -17 16 -3 8 9 22 16 30
16 8 0 14 7 14 15 0 18 -31 20 -48 3z"/>
<path d="M1507 1034 c-36 -36 -37 -61 -2 -38 23 15 42 50 32 60 -2 2 -16 -8
-30 -22z"/>
<path d="M1146 1015 c-11 -30 -6 -45 15 -45 16 0 19 4 14 23 -10 32 -21 41
-29 22z"/>
<path d="M1373 1018 c-6 -7 -16 -24 -23 -37 -10 -19 -10 -22 1 -16 9 6 11 3 6
-9 -4 -10 -3 -15 4 -11 5 4 7 16 3 27 -5 15 -3 20 7 16 9 -4 14 3 15 18 2 27
0 29 -13 12z"/>
<path d="M1525 966 c-16 -7 -39 -24 -50 -36 l-20 -23 25 8 c14 4 60 10 103 12
56 4 77 9 77 19 0 33 -79 45 -135 20z"/>
<path d="M958 963 c-17 -4 -35 -40 -24 -50 3 -3 19 6 35 20 30 25 25 38 -11
30z"/>
<path d="M775 909 c-157 -38 -214 -59 -250 -93 -19 -18 -35 -41 -35 -51 0 -47
106 -107 215 -121 39 -5 39 -4 -15 18 -120 50 -156 88 -130 136 20 34 34 34
40 -2 8 -45 98 -89 233 -116 60 -12 111 -19 114 -16 3 3 -8 8 -23 11 -128 29
-244 88 -244 125 0 31 49 67 123 90 129 41 111 53 -28 19z m-123 -64 c10 -4
13 -16 10 -35 -2 -17 1 -37 8 -45 7 -8 9 -15 4 -15 -18 1 -51 36 -57 61 -9 35
3 46 35 34z"/>
<path d="M1117 904 c-14 -14 7 -24 51 -24 55 0 92 9 92 21 0 10 -133 12 -143
3z"/>
<path d="M1646 901 c5 -5 27 -14 49 -21 61 -19 125 -59 137 -86 10 -20 8 -28
-12 -49 -24 -25 -115 -65 -150 -65 -10 0 -22 -5 -25 -11 -11 -16 79 0 155 28
70 26 110 56 110 84 0 19 -27 45 -37 35 -3 -3 -1 -6 5 -6 19 0 14 -35 -7 -54
-19 -17 -19 -17 -17 18 2 20 -1 36 -7 36 -6 0 -7 3 -4 7 4 3 2 12 -4 19 -6 7
-6 14 -1 18 6 3 12 -1 16 -9 3 -8 13 -15 22 -15 9 0 34 -10 55 -22 95 -53 47
-133 -105 -172 -108 -29 -72 -37 42 -10 85 20 150 52 176 87 20 27 20 27 0 53
-11 15 -44 40 -74 56 -79 43 -359 111 -324 79z m382 -164 c-2 -11 -11 -21 -21
-23 -10 -1 -16 3 -14 9 3 7 10 11 16 10 14 -4 15 14 1 22 -5 3 -10 11 -10 17
0 6 6 6 15 -2 9 -7 15 -22 13 -33z"/>
<path d="M990 888 c-25 -5 -59 -10 -77 -12 -54 -5 -113 -36 -113 -60 0 -36
115 -87 195 -85 27 0 26 1 -13 14 -54 17 -92 41 -92 60 0 8 -8 15 -17 14 -11
0 -13 -3 -5 -6 14 -5 17 -33 3 -33 -16 0 -42 31 -35 42 4 5 20 8 36 6 18 -3
47 4 75 18 25 13 49 21 54 18 5 -3 9 -1 9 3 0 5 12 10 27 11 35 3 56 22 23 21
-14 -1 -45 -6 -70 -11z"/>
<path d="M777 572 c-21 -23 -22 -66 -3 -85 8 -8 28 -20 46 -27 41 -17 39 -53
-3 -58 -22 -3 -30 1 -34 17 -7 29 -23 26 -23 -3 0 -43 79 -52 106 -12 23 36
14 67 -26 93 -58 38 -63 43 -49 59 16 20 36 17 49 -6 15 -28 33 -26 24 3 -13
41 -59 51 -87 19z"/>
<path d="M1104 579 c-2 -4 3 -9 11 -13 22 -8 22 -166 0 -166 -8 0 -15 -4 -15
-10 0 -6 35 -10 84 -10 83 0 84 0 89 28 7 36 -2 42 -20 15 -11 -16 -25 -23
-49 -23 l-34 0 0 80 c0 62 3 82 15 86 8 4 15 9 15 13 0 8 -90 8 -96 0z"/>
<path d="M1387 583 c-2 -5 -17 -47 -33 -95 -16 -49 -34 -88 -41 -88 -7 0 -13
-4 -13 -10 0 -5 16 -10 35 -10 33 0 48 14 24 22 -7 2 -9 13 -5 26 10 31 61 31
69 0 4 -14 0 -26 -11 -34 -15 -12 -10 -13 36 -14 28 0 52 5 52 10 0 6 -6 10
-14 10 -8 0 -27 37 -47 95 -31 88 -42 107 -52 88z m16 -93 c4 -15 0 -20 -15
-20 -14 0 -18 5 -14 16 3 9 6 20 6 25 0 17 17 1 23 -21z"/>
<path d="M1584 571 c-42 -26 -60 -78 -44 -126 16 -49 47 -67 107 -63 45 3 48
5 51 33 2 17 8 34 13 39 17 19 9 26 -31 26 -22 0 -40 -4 -40 -10 0 -5 7 -10
15 -10 20 0 20 -56 0 -64 -21 -8 -61 9 -69 29 -14 37 -6 105 14 125 27 27 46
25 75 -6 l25 -27 0 27 c0 19 -7 29 -26 36 -37 14 -55 12 -90 -9z"/>
<path d="M965 508 c-28 -16 -35 -28 -35 -64 0 -39 27 -64 69 -64 27 0 34 5 47
35 13 31 13 39 -1 65 -9 17 -20 30 -24 30 -5 0 -15 2 -23 5 -7 2 -22 -1 -33
-7z m49 -24 c11 -29 6 -71 -10 -85 -14 -11 -18 -10 -30 6 -25 34 -15 95 16 95
10 0 21 -7 24 -16z"/>
</g>
</svg>
